<?xml version="1.0" standalone="no"?>
<!DOCTYPE svg PUBLIC "-//W3C//DTD SVG 20010904//EN"
 "http://www.w3.org/TR/2001/REC-SVG-20010904/DTD/svg10.dtd">
<svg version="1.0" xmlns="http://www.w3.org/2000/svg"
 width="280.000000pt" height="280.000000pt" viewBox="0 0 280.000000 280.000000"
 preserveAspectRatio="xMidYMid meet">

<g transform="translate(0.000000,280.000000) scale(0.100000,-0.100000)"
fill="#000000" stroke="none">
<path d="M180 2570 c0 -13 11 -19 39 -24 22 -3 41 -13 45 -22 9 -23 7 -527 -2
-541 -4 -6 -24 -14 -45 -18 -21 -4 -37 -13 -37 -21 0 -11 28 -14 145 -14 122
0 145 2 145 15 0 9 -9 15 -25 15 -14 0 -34 9 -45 20 -18 18 -20 33 -20 135 0
106 1 115 19 115 20 0 71 -55 194 -209 l73 -92 87 -2 c76 -2 87 0 87 15 0 11
-13 21 -38 28 -28 7 -51 25 -83 62 -24 29 -62 73 -85 98 -23 25 -53 59 -68 76
l-25 31 37 11 c65 20 119 83 123 143 5 74 -1 99 -33 134 -48 51 -107 62 -315
63 -159 0 -173 -1 -173 -18z m363 -54 c49 -42 62 -122 29 -186 -19 -39 -65
-58 -144 -59 l-48 -1 0 133 c0 74 2 136 4 138 2 2 33 3 68 1 50 -3 71 -9 91
-26z"/>
<path d="M930 2568 c0 -12 7 -18 23 -18 13 0 32 -6 43 -14 18 -13 19 -30 22
-270 2 -161 -1 -263 -7 -275 -6 -10 -26 -22 -46 -25 -21 -4 -35 -13 -35 -21 0
-13 25 -15 145 -15 114 0 145 3 145 13 0 8 -17 18 -37 23 -30 7 -38 15 -46 43
-4 19 -7 142 -5 273 3 224 4 241 22 254 11 8 30 14 43 14 16 0 23 6 23 18 0
18 -11 19 -145 19 -134 0 -145 -1 -145 -19z"/>
<path d="M1322 2506 c3 -68 6 -81 21 -84 13 -3 17 3 17 28 0 18 9 45 21 61 21
29 22 30 102 27 l82 -3 3 -259 c3 -294 2 -299 -68 -311 -28 -5 -40 -12 -40
-23 0 -15 18 -17 165 -17 147 0 165 2 165 17 0 11 -12 18 -40 23 -70 12 -71
17 -68 311 l3 259 67 3 c90 4 121 -12 139 -73 22 -74 39 -58 39 39 l0 84 -305
0 -306 0 3 -82z"/>
<path d="M778 1733 c332 -2 872 -2 1200 0 328 1 57 2 -603 2 -660 0 -929 -1
-597 -2z"/>
<path d="M341 1528 c-38 -104 -71 -197 -76 -218 -5 -23 -3 -26 19 -26 19 0 28
7 35 28 9 25 14 28 58 28 44 0 50 -3 59 -29 9 -22 18 -28 38 -28 16 0 25 4 23
11 -2 6 -23 66 -47 134 -41 118 -44 122 -72 122 -20 0 -31 -6 -37 -22z m62
-140 c-6 -11 -41 -10 -48 1 -3 6 0 31 6 58 l12 47 17 -49 c10 -28 15 -53 13
-57z"/>
<path d="M495 1503 c8 -27 24 -82 36 -123 11 -41 25 -79 30 -84 15 -16 48 -14
53 3 2 9 12 50 22 91 l18 75 18 -85 c36 -164 74 -126 142 144 6 23 4 26 -22
26 -27 0 -29 -3 -46 -80 -10 -44 -22 -80 -26 -80 -4 0 -13 28 -19 63 -19 96
-19 97 -52 97 -18 0 -29 -5 -29 -14 0 -7 -8 -47 -17 -87 l-17 -74 -12 45 c-7
25 -18 64 -24 88 -10 37 -14 42 -40 42 l-29 0 14 -47z"/>
<path d="M849 1420 c-25 -72 -43 -130 -40 -131 47 -6 50 -5 56 23 6 26 10 28
56 28 46 0 51 -2 60 -29 7 -21 17 -28 35 -28 13 0 24 4 24 10 0 7 -19 67 -42
134 -42 120 -44 123 -73 123 -29 0 -31 -3 -76 -130z m98 -23 c-2 -8 -57 -20
-57 -13 0 1 7 24 17 51 l16 49 14 -39 c7 -21 12 -43 10 -48z"/>
<path d="M1070 1417 c0 -125 1 -133 20 -134 26 -2 34 13 35 62 0 33 4 41 21
43 16 2 28 -8 49 -45 15 -26 29 -49 30 -51 6 -7 65 -10 65 -3 0 4 -13 28 -30
54 l-29 47 24 24 c33 33 33 79 0 111 -22 22 -32 25 -105 25 l-80 0 0 -133z
m148 54 c2 -13 -2 -28 -10 -32 -20 -13 -78 -11 -79 4 0 6 -2 22 -3 35 -3 21 0
23 43 20 40 -3 46 -6 49 -27z"/>
<path d="M1312 1418 l3 -132 98 -1 c94 0 97 1 97 23 0 21 -4 22 -70 22 l-70 0
0 35 0 35 60 0 c57 0 60 1 60 25 0 24 -3 25 -60 25 -57 0 -60 1 -60 25 0 23 3
24 68 27 61 3 67 5 70 26 3 22 1 22 -98 22 l-101 0 3 -132z"/>
<path d="M1690 1428 c-24 -68 -45 -128 -47 -135 -3 -8 5 -11 24 -9 20 2 31 11
37 30 9 23 15 26 58 26 42 0 48 -3 54 -24 5 -21 28 -35 57 -36 13 0 7 24 -37
145 -42 114 -45 120 -73 123 -30 3 -30 2 -73 -120z m95 -38 c-3 -5 -13 -7 -23
-5 -9 2 -21 4 -25 4 -8 1 -3 24 16 71 9 24 10 24 23 -19 8 -24 11 -47 9 -51z"/>
<path d="M1910 1543 c0 -5 -1 -64 -2 -133 l-2 -125 27 -1 27 -1 0 133 0 134
-25 0 c-14 0 -25 -3 -25 -7z"/>
<path d="M1530 1380 c0 -18 7 -20 54 -20 49 0 55 2 53 20 -1 17 -8 20 -54 20
-46 0 -53 -3 -53 -20z"/>
<path d="M276 1169 c-8 -40 -8 -202 0 -223 3 -9 17 -16 30 -16 23 0 24 2 24
88 l0 87 53 -87 c45 -76 56 -87 80 -88 l27 0 0 135 0 135 -25 0 c-25 0 -25 -1
-25 -92 l0 -93 -56 93 c-44 74 -60 92 -78 92 -18 0 -25 -7 -30 -31z"/>
<path d="M565 1188 c-28 -16 -35 -28 -35 -65 0 -40 29 -69 78 -78 51 -9 72
-23 72 -44 0 -35 -72 -44 -92 -11 -16 24 -68 28 -68 5 0 -27 45 -62 88 -70 83
-14 149 46 126 113 -7 22 -21 31 -71 47 -78 25 -96 41 -69 61 27 19 52 18 76
-6 24 -24 60 -27 60 -5 0 9 -11 27 -25 40 -19 20 -34 25 -72 25 -26 0 -57 -6
-68 -12z"/>
<path d="M770 1065 l0 -135 30 0 c30 0 30 1 30 55 l0 55 55 0 c52 0 55 1 55
25 0 24 -3 25 -55 25 -54 0 -55 0 -55 30 l0 30 65 0 c63 0 65 1 65 25 0 25 0
25 -95 25 l-95 0 0 -135z"/>
<path d="M1055 1065 l0 -135 28 0 c26 0 27 2 27 50 0 46 2 50 24 50 19 0 31
-11 53 -50 25 -44 32 -50 61 -50 31 0 32 1 21 23 -7 12 -21 34 -31 50 l-20 27
27 32 c32 38 29 81 -11 116 -21 19 -37 22 -102 22 l-77 0 0 -135z m148 64 c19
-31 1 -49 -48 -49 -45 0 -45 0 -45 36 0 35 0 35 41 32 25 -2 46 -10 52 -19z"/>
<path d="M2390 1065 l0 -135 25 0 c24 0 25 3 25 58 0 64 16 96 46 90 16 -3 19
-13 22 -76 l3 -72 29 0 30 0 0 64 c0 80 -12 113 -46 128 -21 10 -31 9 -55 -4
l-29 -17 0 49 c0 47 -2 50 -25 50 l-25 0 0 -135z"/>
<path d="M1330 1117 c-48 -24 -66 -104 -34 -152 21 -32 75 -47 115 -33 25 9
49 34 49 52 0 12 -41 6 -63 -9 -20 -13 -25 -13 -45 1 -37 26 -25 34 48 34 41
0 70 4 70 10 0 24 -30 79 -51 94 -28 19 -55 20 -89 3z m70 -42 c18 -21 9 -27
-36 -23 -36 3 -37 4 -20 21 21 21 40 22 56 2z"/>
<path d="M1512 1118 c-26 -13 -39 -54 -25 -77 5 -9 32 -23 58 -32 53 -17 67
-34 37 -43 -22 -7 -52 2 -52 15 0 5 -11 9 -25 9 -14 0 -25 -6 -25 -13 0 -50
117 -71 152 -28 36 46 15 81 -60 101 -26 6 -42 16 -39 23 6 18 42 20 57 2 15
-18 50 -20 50 -2 -1 45 -74 71 -128 45z"/>
<path d="M1711 1116 c-96 -53 -42 -209 66 -190 28 5 73 40 73 56 0 13 -43 9
-63 -6 -22 -17 -54 -10 -68 15 -9 18 -5 19 61 19 64 0 70 2 70 20 0 34 -29 80
-56 90 -34 13 -54 12 -83 -4z m75 -43 c17 -17 16 -18 -20 -21 -45 -4 -54 2
-36 23 16 20 35 19 56 -2z"/>
<path d="M1913 1120 c-24 -10 -46 -44 -36 -54 12 -12 41 -6 47 10 4 10 15 14
33 12 45 -5 33 -30 -21 -43 -55 -14 -79 -38 -70 -69 9 -31 27 -46 54 -46 14 0
46 0 73 0 l47 0 0 74 c0 55 -4 79 -17 95 -20 24 -77 35 -110 21z m77 -120 c0
-22 -34 -44 -56 -36 -22 8 -17 36 9 46 35 14 47 12 47 -10z"/>
<path d="M2142 1114 c-13 -9 -22 -11 -22 -5 0 6 -11 11 -25 11 -25 0 -25 0
-25 -95 0 -95 0 -95 25 -95 24 0 25 3 25 58 0 59 18 92 48 92 14 0 16 36 4 44
-5 3 -18 -2 -30 -10z"/>
<path d="M2240 1117 c-14 -7 -33 -28 -43 -48 -15 -32 -16 -41 -5 -75 17 -51
67 -78 117 -64 34 9 60 35 61 58 0 17 -47 15 -54 -3 -7 -18 -47 -20 -64 -3
-13 13 -16 67 -4 84 13 19 41 23 56 9 8 -8 26 -15 39 -15 20 0 24 4 20 20 -6
22 -51 50 -80 50 -10 0 -29 -6 -43 -13z"/>
<path d="M260 821 c0 -22 17 -31 54 -27 l26 3 0 -113 0 -114 30 0 30 0 0 110
c0 61 3 111 8 111 4 1 21 2 37 3 23 1 31 7 33 24 3 22 1 22 -107 22 -102 0
-111 -1 -111 -19z"/>
<path d="M790 820 c0 -27 27 -37 47 -17 20 19 9 37 -23 37 -17 0 -24 -5 -24
-20z"/>
<path d="M1668 833 c-3 -7 -2 -211 1 -250 1 -7 12 -13 26 -13 24 0 25 2 25 70
0 60 3 71 21 80 35 19 49 -3 49 -81 0 -67 1 -69 25 -69 25 0 25 1 25 80 0 67
-3 83 -20 100 -22 22 -69 27 -88 8 -9 -9 -12 -2 -12 35 0 43 -2 47 -24 47 -14
0 -26 -3 -28 -7z"/>
<path d="M1872 818 c2 -15 11 -24 26 -26 18 -3 22 1 22 22 0 21 -5 26 -26 26
-21 0 -25 -4 -22 -22z"/>
<path d="M474 757 c-3 -8 -4 -52 -2 -98 3 -82 4 -84 28 -84 24 0 25 3 26 57 1
57 15 88 40 88 8 0 14 10 14 25 0 27 -18 33 -39 13 -11 -10 -14 -10 -18 0 -6
16 -42 16 -49 -1z"/>
<path d="M622 754 c-30 -21 -28 -44 3 -44 14 0 25 5 25 10 0 6 14 10 30 10 19
0 30 -5 30 -14 0 -15 -7 -18 -65 -31 -16 -4 -36 -11 -42 -17 -19 -15 -16 -62
5 -81 22 -20 72 -22 91 -4 11 10 14 10 18 0 3 -7 14 -13 26 -13 21 0 22 3 19
83 -3 56 -9 88 -20 100 -19 22 -89 23 -120 1z m84 -130 c-3 -8 -19 -14 -36
-14 -41 0 -40 27 3 45 28 12 32 12 35 -1 2 -8 1 -22 -2 -30z"/>
<path d="M795 757 c-3 -7 -5 -52 -3 -98 3 -81 4 -84 27 -84 23 0 23 2 24 95 1
91 0 95 -21 98 -12 2 -24 -3 -27 -11z"/>
<path d="M880 669 c0 -98 0 -100 23 -97 20 3 22 9 25 70 2 56 6 70 23 79 35
18 49 -5 49 -82 0 -67 1 -69 25 -69 25 0 25 1 25 84 0 76 -2 86 -22 100 -26
18 -69 21 -85 5 -8 -8 -13 -8 -17 0 -4 6 -16 11 -27 11 -18 0 -19 -8 -19 -101z"/>
<path d="M1107 750 c-48 -38 -44 -130 7 -165 35 -25 93 -19 124 13 l27 27 -24
3 c-13 2 -35 -2 -48 -9 -27 -14 -56 -3 -61 23 -2 12 9 14 63 13 65 -2 65 -2
65 26 0 15 -12 41 -26 58 -32 38 -87 43 -127 11z m93 -35 c18 -22 9 -27 -41
-23 -41 3 -42 4 -25 21 22 21 49 22 66 2z"/>
<path d="M1324 758 c-53 -25 -63 -121 -18 -163 34 -32 91 -33 128 -4 34 27 33
39 -4 39 -16 0 -30 -4 -30 -10 0 -14 -43 -13 -58 2 -26 26 -12 34 53 32 l65
-3 0 29 c0 43 -44 90 -83 89 -18 0 -42 -5 -53 -11z m76 -48 c10 -18 8 -20 -30
-20 -41 0 -49 7 -28 28 18 18 46 14 58 -8z"/>
<path d="M1497 752 c-20 -22 -22 -65 -4 -81 8 -6 29 -14 48 -17 39 -8 61 -22
53 -35 -9 -15 -61 -10 -68 6 -6 17 -56 21 -56 5 0 -6 11 -22 25 -35 31 -32
103 -35 128 -7 40 44 12 92 -60 107 -33 7 -45 29 -20 38 17 5 47 -3 47 -14 0
-5 11 -9 25 -9 30 0 32 13 5 40 -27 27 -100 28 -123 2z"/>
<path d="M1870 670 l0 -100 25 0 25 0 0 100 0 100 -25 0 -25 0 0 -100z"/>
<path d="M1955 762 c-3 -3 -5 -61 -5 -129 l0 -123 30 0 c27 0 30 3 30 34 l0
34 43 -5 c35 -4 46 -1 66 20 33 36 33 118 1 152 -20 21 -31 24 -91 23 -38 -1
-71 -4 -74 -6z m123 -44 c7 -7 12 -29 12 -50 0 -31 -5 -41 -25 -50 -34 -15
-55 4 -55 51 0 40 14 61 40 61 9 0 21 -5 28 -12z"/>
<path d="M277 483 c-9 -8 -9 -226 -1 -247 3 -9 17 -16 30 -16 22 0 24 4 24 44
0 47 8 53 78 54 88 2 109 123 27 157 -35 15 -146 21 -158 8z m147 -65 c18 -29
-4 -53 -53 -56 l-41 -3 0 41 0 41 41 -3 c27 -2 46 -9 53 -20z"/>
<path d="M682 405 c-43 -19 -65 -68 -52 -117 14 -50 44 -73 95 -73 51 0 89 30
99 76 6 32 -12 87 -35 105 -25 20 -73 24 -107 9z m80 -49 c23 -34 -2 -106 -37
-106 -41 0 -60 76 -28 112 17 19 51 16 65 -6z"/>
<path d="M894 410 c-50 -20 -68 -84 -39 -140 17 -32 51 -46 90 -36 20 5 25 3
25 -13 0 -25 -32 -36 -60 -21 -12 6 -33 10 -47 8 l-25 -3 20 -25 c28 -35 110
-36 144 -2 20 20 23 34 26 128 l4 105 -39 -1 c-21 -1 -47 1 -58 4 -11 3 -30 1
-41 -4z m78 -65 c9 -19 8 -29 -6 -50 -19 -29 -38 -32 -60 -9 -19 18 -21 55 -4
72 21 21 57 14 70 -13z"/>
<path d="M1224 406 c-26 -12 -44 -33 -44 -52 0 -11 43 -2 56 11 19 19 38 19
54 0 14 -17 14 -17 -58 -35 -55 -14 -73 -47 -48 -84 22 -34 59 -43 91 -22 14
9 25 12 25 6 0 -5 11 -10 25 -10 24 0 25 2 25 74 0 56 -4 79 -17 94 -24 27
-71 35 -109 18z m74 -118 c-4 -29 -55 -50 -68 -28 -11 17 -4 29 24 40 36 15
48 12 44 -12z"/>
<path d="M1455 410 c-11 -4 -32 -5 -47 -3 l-28 6 0 -97 c0 -95 0 -96 25 -96
23 0 24 3 27 73 3 69 4 72 28 72 24 0 25 -3 28 -72 3 -70 4 -73 27 -73 24 0
25 3 25 64 0 67 15 94 45 82 11 -4 15 -22 15 -76 l0 -70 30 0 30 0 0 64 c0 79
-12 113 -44 127 -19 9 -31 8 -54 -4 -17 -8 -34 -11 -39 -7 -14 14 -47 19 -68
10z"/>
<path d="M510 315 c0 -95 0 -95 25 -95 24 0 25 3 25 55 0 42 5 60 20 75 11 11
25 20 30 20 6 0 10 9 10 20 0 23 -29 27 -48 8 -9 -9 -12 -9 -12 0 0 7 -11 12
-25 12 -25 0 -25 0 -25 -95z"/>
<path d="M1060 315 c0 -95 0 -95 25 -95 24 0 25 3 25 60 0 57 2 62 30 78 33
19 41 52 12 52 -10 0 -23 -5 -30 -12 -9 -9 -12 -9 -12 0 0 7 -11 12 -25 12
-25 0 -25 0 -25 -95z"/>
</g>
</svg>
