<?xml version="1.0" standalone="no"?>
<!DOCTYPE svg PUBLIC "-//W3C//DTD SVG 20010904//EN"
 "http://www.w3.org/TR/2001/REC-SVG-20010904/DTD/svg10.dtd">
<svg version="1.0" xmlns="http://www.w3.org/2000/svg"
 width="800.000000pt" height="250.000000pt" viewBox="0 0 800.000000 250.000000"
 preserveAspectRatio="xMidYMid meet">

<g transform="translate(0.000000,250.000000) scale(0.100000,-0.100000)"
fill="#000000" stroke="none">
<path d="M1918 1689 c-11 -6 -18 -22 -18 -40 0 -62 100 -61 108 1 6 41 -48 64
-90 39z"/>
<path d="M5957 1682 c-24 -26 -21 -49 8 -68 32 -21 72 -11 87 21 23 51 -57 89
-95 47z"/>
<path d="M6306 1684 c-23 -23 -20 -51 9 -70 52 -34 113 13 80 62 -18 28 -65
33 -89 8z"/>
<path d="M6935 1676 c-20 -31 -6 -63 30 -72 31 -8 75 19 75 46 0 50 -77 69
-105 26z"/>
<path d="M2370 1500 l0 -160 45 0 44 0 3 71 c3 75 17 99 52 86 13 -5 16 -21
16 -82 l0 -75 50 0 50 0 0 89 c0 82 -2 92 -26 120 -21 25 -33 31 -66 31 -21 0
-48 -5 -59 -10 -18 -10 -19 -7 -19 40 l0 50 -45 0 -45 0 0 -160z"/>
<path d="M1360 1495 l0 -155 103 0 c158 0 197 17 197 89 0 20 -8 36 -26 50
l-25 20 20 20 c45 45 14 107 -59 122 -25 4 -82 8 -127 9 l-83 0 0 -155z m179
76 c27 -17 4 -41 -39 -41 -36 0 -40 2 -40 25 0 22 4 25 33 25 17 0 38 -4 46
-9z m16 -136 c0 -17 -8 -20 -47 -23 -46 -3 -48 -2 -48 23 0 25 2 26 48 23 39
-3 47 -6 47 -23z"/>
<path d="M3510 1495 l0 -155 49 0 49 0 -1 48 0 47 61 3 62 3 0 34 0 34 -61 3
c-59 3 -62 4 -65 31 l-3 27 75 0 74 0 0 40 0 40 -120 0 -120 0 0 -155z"/>
<path d="M5490 1495 l0 -155 50 0 50 0 0 155 0 155 -50 0 -50 0 0 -155z"/>
<path d="M2690 1595 c0 -24 -5 -35 -15 -35 -10 0 -15 -10 -15 -30 0 -20 5 -30
15 -30 12 0 15 -13 15 -55 0 -78 27 -105 105 -105 30 0 55 4 55 9 0 28 -21 61
-40 61 -38 0 -41 83 -2 88 32 5 32 59 0 64 -18 2 -24 11 -26 36 -3 31 -5 32
-48 32 -44 0 -44 0 -44 -35z"/>
<path d="M4108 1598 c-2 -24 -8 -33 -20 -32 -27 3 -25 -62 2 -69 17 -4 20 -14
20 -60 0 -48 4 -58 26 -76 31 -24 124 -30 124 -8 0 32 -14 56 -34 59 -17 2
-22 11 -24 46 -3 39 -1 42 22 42 22 0 26 4 26 30 0 25 -4 30 -25 30 -22 0 -25
4 -25 35 0 35 0 35 -44 35 -43 0 -45 -1 -48 -32z"/>
<path d="M6110 1599 c0 -22 -5 -32 -20 -36 -14 -4 -20 -14 -20 -34 0 -22 5
-29 20 -29 18 0 20 -7 20 -55 0 -76 28 -105 98 -105 27 0 51 3 55 6 12 13 -15
63 -36 66 -18 2 -23 11 -25 46 -3 39 -1 42 22 42 22 0 26 5 26 29 0 23 -5 30
-22 33 -18 2 -24 11 -26 36 -3 31 -5 32 -48 32 -43 0 -44 -1 -44 -31z"/>
<path d="M6740 1595 c0 -24 -5 -35 -15 -35 -10 0 -15 -10 -15 -30 0 -19 5 -30
14 -30 10 0 15 -18 18 -61 6 -79 27 -99 104 -99 30 0 54 4 54 9 0 28 -21 61
-40 61 -17 0 -20 6 -20 45 0 41 2 45 25 45 21 0 25 5 25 30 0 25 -4 30 -25 30
-22 0 -25 4 -25 35 l0 35 -50 0 -50 0 0 -35z"/>
<path d="M1700 1460 l0 -120 50 0 50 0 0 68 c0 73 10 92 47 92 20 0 23 5 23
40 0 43 -12 50 -53 29 -16 -9 -22 -9 -25 0 -2 6 -24 11 -48 11 l-44 0 0 -120z"/>
<path d="M1910 1460 l0 -120 45 0 45 0 0 120 0 120 -45 0 -45 0 0 -120z"/>
<path d="M2074 1546 c-40 -40 -46 -92 -14 -143 25 -42 87 -61 130 -39 28 13
30 13 30 -4 0 -36 -66 -50 -121 -26 -11 5 -19 -1 -27 -19 -17 -38 -16 -42 24
-55 50 -17 139 -8 172 17 39 29 51 74 51 196 l1 107 -45 0 c-34 0 -45 -4 -45
-16 0 -14 -2 -14 -22 0 -12 9 -40 16 -61 16 -31 0 -46 -7 -73 -34z m136 -50
c6 -8 10 -25 8 -38 -4 -30 -56 -38 -75 -12 -17 23 -16 29 3 48 19 20 48 20 64
2z"/>
<path d="M2922 1560 c-19 -12 -40 -37 -49 -58 -21 -50 -2 -107 46 -139 44 -29
137 -32 171 -5 l21 17 -24 23 c-20 19 -28 21 -51 13 -18 -7 -34 -7 -51 1 -44
20 -27 28 60 28 95 0 100 5 71 75 -27 63 -126 86 -194 45z m106 -52 c21 -21
13 -28 -28 -28 -22 0 -40 4 -40 8 0 14 23 32 40 32 9 0 21 -5 28 -12z"/>
<path d="M3170 1460 l0 -120 45 0 45 0 0 64 c0 71 14 96 56 96 21 0 24 4 24
40 0 34 -3 40 -21 40 -11 0 -29 -5 -40 -10 -13 -7 -19 -7 -19 0 0 5 -20 10
-45 10 l-45 0 0 -120z"/>
<path d="M3780 1505 c0 -83 17 -137 48 -154 26 -14 99 -14 107 -1 3 6 11 10
16 10 6 0 7 -4 4 -10 -4 -6 11 -10 39 -10 l45 0 3 120 3 120 -47 0 -48 0 0
-67 c0 -79 -8 -96 -41 -91 -23 3 -24 7 -27 81 l-3 77 -49 0 -50 0 0 -75z"/>
<path d="M4300 1495 c0 -89 15 -137 45 -149 26 -9 84 -7 106 4 13 7 19 7 19 0
0 -5 20 -10 45 -10 l45 0 0 120 0 120 -50 0 -49 0 -3 -77 c-3 -74 -4 -78 -27
-81 -33 -5 -41 12 -41 91 l0 67 -45 0 -45 0 0 -85z"/>
<path d="M4610 1460 l0 -120 45 0 45 0 0 58 c0 67 19 102 56 102 21 0 24 4 24
40 0 43 -12 50 -53 29 -16 -9 -22 -9 -25 0 -2 6 -24 11 -48 11 l-44 0 0 -120z"/>
<path d="M4858 1564 c-35 -19 -58 -63 -58 -111 0 -71 52 -113 139 -113 48 0
101 16 101 30 0 4 -11 16 -23 29 -19 17 -29 20 -48 13 -25 -10 -62 -1 -74 17
-4 8 21 11 79 11 84 0 86 0 86 24 0 69 -53 116 -130 116 -25 -1 -57 -7 -72
-16z m100 -56 c21 -21 13 -28 -28 -28 -22 0 -40 4 -40 8 0 14 23 32 40 32 9 0
21 -5 28 -12z"/>
<path d="M5135 1569 c-68 -39 -58 -117 18 -133 15 -3 38 -8 52 -11 42 -9 17
-28 -29 -22 -22 2 -47 6 -55 8 -15 4 -38 -48 -26 -59 4 -4 44 -7 90 -7 97 0
125 16 125 70 0 40 -23 61 -79 72 -58 11 -70 37 -15 31 22 -3 45 -7 53 -9 14
-4 38 47 27 59 -13 12 -140 13 -161 1z"/>
<path d="M5640 1460 l0 -120 45 0 45 0 0 54 c0 74 13 106 44 106 30 0 36 -16
36 -96 l0 -64 45 0 45 0 0 95 c0 88 -2 98 -25 120 -18 19 -35 25 -68 25 -23 0
-49 -6 -56 -12 -11 -10 -14 -10 -18 0 -3 7 -23 12 -49 12 l-44 0 0 -120z"/>
<path d="M5950 1460 l0 -120 50 0 50 0 0 120 0 120 -50 0 -50 0 0 -120z"/>
<path d="M6300 1460 l0 -120 50 0 50 0 0 120 0 120 -50 0 -50 0 0 -120z"/>
<path d="M6473 1570 c-26 -11 -27 -11 -12 -43 10 -22 17 -24 62 -23 32 1 51
-3 54 -11 3 -9 -8 -13 -37 -13 -49 0 -99 -24 -102 -48 -5 -63 19 -92 78 -92
25 0 49 6 58 16 15 14 16 14 16 0 0 -12 11 -16 45 -16 l45 0 0 80 c0 91 -12
126 -51 146 -31 16 -121 18 -156 4z m112 -149 c0 -24 -31 -37 -50 -21 -16 13
-16 15 1 27 22 16 49 13 49 -6z"/>
<path d="M6930 1460 l0 -120 50 0 50 0 0 120 0 120 -50 0 -50 0 0 -120z"/>
<path d="M7069 1533 c11 -27 32 -81 48 -120 l28 -73 51 0 52 0 46 115 c25 63
46 117 46 120 0 3 -20 5 -44 5 l-44 0 -22 -60 c-21 -56 -40 -85 -40 -61 0 6
-9 35 -21 66 l-20 55 -50 0 -49 0 19 -47z"/>
<path d="M7403 1560 c-41 -24 -53 -48 -53 -102 0 -76 50 -118 139 -118 48 0
101 16 101 30 0 4 -11 16 -23 29 -19 17 -29 20 -48 13 -25 -10 -62 -1 -74 17
-4 8 21 11 79 11 85 0 86 0 86 25 0 39 -27 83 -60 100 -40 21 -108 19 -147 -5z
m105 -52 c21 -21 13 -28 -28 -28 -22 0 -40 4 -40 8 0 14 23 32 40 32 9 0 21
-5 28 -12z"/>
<path d="M1250 1218 c-45 -31 -90 -117 -90 -175 0 -98 92 -124 164 -46 14 15
26 31 26 35 0 4 -15 -8 -32 -27 -63 -66 -128 -49 -128 33 0 44 39 132 74 167
47 46 90 20 51 -31 -8 -10 -15 -26 -15 -34 0 -32 42 28 43 61 2 31 -1 34 -28
37 -19 2 -43 -6 -65 -20z"/>
<path d="M3307 1233 c-9 -2 -15 -9 -12 -14 4 -5 14 -5 26 2 12 6 22 9 25 7 2
-2 -12 -46 -31 -97 -36 -96 -42 -126 -27 -135 5 -3 16 22 26 54 16 58 17 60
50 60 18 0 48 10 67 23 58 38 48 107 -15 107 -19 0 -18 -2 4 -13 38 -19 34
-65 -7 -90 -18 -10 -43 -17 -57 -15 l-25 3 23 58 24 57 -27 -1 c-14 -1 -34 -3
-44 -6z"/>
<path d="M4166 1207 c-50 -66 -98 -237 -66 -237 5 0 21 23 35 50 32 63 60 69
52 11 -4 -35 5 -61 22 -61 4 0 6 26 6 58 0 54 -1 57 -25 57 -18 0 -32 -11 -49
-37 -13 -21 -26 -36 -29 -34 -7 8 19 76 29 76 17 0 69 93 69 122 0 37 -13 35
-44 -5z m15 -45 c-19 -37 -41 -62 -41 -47 0 8 30 67 43 83 19 24 18 4 -2 -36z"/>
<path d="M5072 1228 c-25 -12 -39 -50 -26 -70 6 -9 11 -2 14 22 4 31 9 35 38
38 17 2 32 1 32 -1 0 -2 -9 -25 -20 -50 -14 -31 -28 -47 -45 -51 -14 -4 -25
-10 -25 -15 0 -5 10 -7 22 -3 18 4 20 2 14 -14 -18 -46 -29 -102 -23 -117 10
-27 27 -20 27 11 0 15 6 47 14 72 12 40 17 46 47 51 l34 5 -28 9 c-30 8 -31
17 -7 80 8 21 16 25 49 25 22 0 43 5 46 10 9 14 -134 12 -163 -2z"/>
<path d="M6462 1218 c-44 -48 -122 -242 -122 -304 0 -32 29 -43 47 -18 8 10
19 38 26 62 6 23 15 42 20 42 5 0 5 6 -1 13 -5 6 -13 26 -16 42 -6 26 -1 36
30 65 38 37 64 79 64 105 0 22 -23 19 -48 -7z m38 -6 c0 -12 -62 -94 -67 -88
-5 4 22 62 39 84 12 14 28 16 28 4z m-94 -229 c-3 -24 -11 -53 -16 -64 -13
-23 -33 -16 -26 9 2 10 9 38 16 64 15 59 35 52 26 -9z"/>
<path d="M7198 1171 c-47 -62 -57 -70 -88 -71 -29 -2 -31 -3 -12 -8 27 -8 27
-13 0 -65 -10 -21 -18 -48 -16 -60 3 -17 12 -5 36 46 30 60 36 67 63 67 28 0
29 -1 29 -50 0 -35 5 -52 14 -56 20 -8 53 12 67 39 11 21 10 21 -15 -3 -23
-21 -29 -22 -36 -10 -14 23 9 137 45 223 5 13 2 17 -13 17 -14 0 -39 -23 -74
-69z m34 -24 c-14 -48 -21 -57 -37 -55 -11 2 -20 8 -20 15 0 13 64 107 70 101
2 -2 -4 -29 -13 -61z"/>
<path d="M7420 1193 c-66 -104 -88 -214 -45 -221 16 -3 18 -1 8 9 -21 21 -15
54 17 90 38 43 70 108 70 142 0 40 -17 33 -50 -20z m16 -50 c-13 -27 -32 -55
-40 -62 -15 -12 -14 -10 0 25 23 56 57 109 61 97 2 -6 -7 -33 -21 -60z"/>
<path d="M7573 1207 c-28 -41 -68 -133 -76 -173 -4 -20 -1 -39 7 -50 12 -15
18 -16 39 -7 14 7 31 22 38 35 10 20 8 19 -15 -5 -52 -55 -66 12 -15 71 54 61
89 162 57 162 -7 0 -23 -15 -35 -33z m37 -2 c0 -21 -70 -139 -77 -131 -7 7 58
136 68 136 5 0 9 -2 9 -5z"/>
<path d="M2058 1183 c-8 -10 -23 -33 -32 -50 -9 -18 -20 -33 -24 -33 -4 0 -8
-29 -10 -65 l-3 -65 29 0 c15 0 37 7 48 16 18 14 18 15 -4 4 -46 -23 -66 12
-42 74 8 21 17 26 47 28 37 1 37 1 6 5 -39 5 -39 6 -12 49 24 39 22 65 -3 37z"/>
<path d="M4386 1175 c-9 -14 -21 -36 -26 -50 -5 -14 -14 -25 -20 -25 -6 0 -8
-4 -5 -10 3 -5 1 -27 -5 -49 -5 -21 -7 -46 -4 -55 8 -22 58 -21 75 2 11 14 11
15 -1 5 -8 -7 -22 -13 -32 -13 -14 0 -18 8 -18 38 0 49 17 70 60 75 l35 4 -37
1 -37 2 24 43 c14 23 25 45 25 50 0 15 -18 6 -34 -18z"/>
<path d="M5526 1178 c-8 -13 -20 -35 -27 -50 -7 -16 -15 -28 -18 -28 -6 0 -12
-34 -14 -90 -2 -32 1 -35 28 -38 23 -2 37 4 55 25 l25 28 -26 -22 c-51 -45
-78 -24 -59 46 10 39 12 41 53 43 l42 1 -38 4 -38 4 25 44 c14 24 26 46 26 49
0 14 -21 4 -34 -16z"/>
<path d="M2217 1163 c-12 -11 -8 -23 8 -23 8 0 15 7 15 15 0 16 -12 20 -23 8z"/>
<path d="M3797 1163 c-13 -12 -7 -23 13 -23 11 0 20 7 20 15 0 15 -21 21 -33
8z"/>
<path d="M1430 1125 c-3 -19 -8 -40 -15 -60 -5 -15 -3 -15 8 3 11 19 15 21 25
9 9 -10 9 -21 0 -44 -13 -34 -6 -63 16 -63 18 0 76 48 76 62 0 6 -9 -1 -21
-16 -11 -14 -29 -26 -40 -26 -22 0 -22 -2 -8 39 10 28 9 35 -9 54 -10 12 -22
29 -25 37 -3 8 -6 11 -7 5z"/>
<path d="M3581 1118 c-1 -9 -4 -25 -7 -35 -4 -13 -3 -14 3 -5 8 11 12 10 21
-1 9 -10 9 -21 0 -44 -23 -62 12 -83 60 -35 15 15 18 19 7 10 -12 -10 -29 -18
-39 -18 -13 0 -16 5 -11 18 17 39 17 72 0 78 -9 4 -21 16 -25 28 -7 16 -9 17
-9 4z"/>
<path d="M4701 1118 c-1 -9 -4 -25 -7 -35 -4 -13 -3 -14 3 -5 8 11 12 10 21
-1 9 -10 9 -21 0 -44 -23 -62 12 -83 60 -35 15 15 18 19 7 10 -12 -10 -29 -18
-39 -18 -13 0 -16 5 -11 18 17 39 17 72 0 78 -9 4 -21 16 -25 28 -7 16 -9 17
-9 4z"/>
<path d="M5878 1125 c-3 -6 -8 -23 -12 -40 -7 -28 -6 -29 8 -10 14 19 15 19
22 2 3 -10 2 -29 -5 -43 -15 -34 -14 -51 5 -58 21 -8 71 19 85 47 10 19 8 19
-18 -5 -45 -43 -63 -37 -44 16 8 19 6 30 -8 48 -10 13 -20 30 -23 38 -2 7 -7
10 -10 5z"/>
<path d="M6766 1121 c-4 -7 -5 -15 -2 -18 3 -3 -1 -18 -9 -34 -8 -15 -15 -32
-15 -36 1 -4 9 8 20 27 16 31 19 33 26 16 4 -10 2 -33 -4 -49 -22 -57 23 -72
76 -24 12 11 22 24 22 28 0 5 -11 -3 -25 -16 -24 -25 -55 -33 -55 -15 0 5 5
21 12 35 10 21 8 29 -9 48 -11 12 -22 29 -25 37 -3 11 -6 11 -12 1z"/>
<path d="M1620 1081 c-81 -81 -10 -159 72 -80 l33 31 -33 -26 c-28 -22 -82
-36 -82 -22 0 2 -3 11 -6 19 -4 11 3 17 24 22 37 8 77 48 69 69 -10 25 -46 19
-77 -13z m60 5 c0 -8 -12 -24 -26 -35 -48 -38 -60 -23 -19 22 28 30 45 35 45
13z"/>
<path d="M2584 1096 c-37 -16 -64 -51 -64 -84 0 -30 27 -39 61 -20 26 15 27
15 21 -2 -4 -10 -23 -29 -42 -42 -39 -26 -48 -63 -15 -63 11 0 29 15 42 35 12
19 30 44 40 54 10 11 12 16 6 12 -16 -9 -16 -11 2 47 14 47 3 68 -14 25 -5
-13 -21 -34 -35 -48 -22 -20 -29 -22 -36 -10 -17 27 30 90 67 90 14 0 21 4 18
10 -8 13 -13 12 -51 -4z m-18 -181 c-18 -28 -36 -33 -36 -11 0 15 40 49 48 41
3 -2 -3 -16 -12 -30z"/>
<path d="M3943 1095 c-17 -7 -39 -25 -48 -39 -34 -51 3 -99 46 -60 17 15 19
15 19 1 0 -17 -5 -22 -52 -58 -16 -11 -28 -29 -28 -40 0 -32 41 -19 67 21 12
19 30 44 40 54 10 11 12 15 4 11 -11 -6 -13 -3 -7 16 3 13 9 38 12 54 4 27 4
28 -8 11 -47 -69 -88 -93 -88 -51 0 24 50 74 78 77 19 2 22 5 11 9 -8 4 -29 1
-46 -6z m-17 -180 c-18 -28 -36 -33 -36 -11 0 15 40 49 48 41 3 -2 -3 -16 -12
-30z"/>
<path d="M4520 1081 c-56 -55 -48 -112 14 -110 29 2 29 2 4 6 -41 6 -44 32 -5
48 41 17 71 50 64 70 -10 24 -46 18 -77 -14z m58 3 c-3 -19 -55 -61 -63 -52
-7 7 44 68 57 68 5 0 8 -7 6 -16z"/>
<path d="M6066 1083 c-28 -28 -40 -59 -34 -90 6 -31 70 -30 104 2 l29 26 -31
-21 c-34 -24 -77 -24 -81 0 -2 9 14 23 40 35 32 15 43 26 45 48 3 23 0 27 -21
27 -13 0 -36 -12 -51 -27z m64 7 c0 -14 -46 -60 -60 -60 -16 0 -12 15 11 44
20 26 49 35 49 16z"/>
<path d="M6612 1101 c-15 -9 -18 -35 -8 -73 6 -21 3 -29 -13 -38 -27 -14 -36
5 -21 44 12 33 12 36 2 36 -12 0 -32 -46 -32 -71 0 -30 28 -34 61 -10 16 12
35 19 41 15 7 -5 8 -3 4 5 -5 7 -2 25 4 42 10 23 10 32 0 44 -14 17 -20 18
-38 6z m32 -10 c8 -13 -11 -61 -24 -61 -11 0 -13 30 -4 54 7 18 20 21 28 7z"/>
<path d="M1812 1084 c-26 -18 -52 -65 -52 -94 0 -25 41 -28 60 -5 12 14 15 14
32 -1 15 -14 22 -15 41 -5 13 7 29 22 36 34 11 17 7 16 -17 -6 -32 -31 -49
-23 -36 16 5 12 8 25 9 29 0 3 3 9 7 13 8 8 -1 35 -12 35 -5 0 -6 -8 -4 -18 3
-10 -9 -34 -31 -60 -35 -40 -65 -55 -65 -31 0 22 33 80 54 94 11 8 16 15 10
15 -5 0 -20 -7 -32 -16z"/>
<path d="M2166 1065 c-21 -43 -18 -89 5 -93 9 -2 30 9 45 23 l29 27 -29 -21
c-48 -35 -60 -8 -26 59 16 32 17 40 6 40 -7 0 -21 -16 -30 -35z"/>
<path d="M2924 1085 c-26 -18 -58 -81 -50 -101 7 -19 41 -18 61 3 16 16 18 16
27 0 12 -23 31 -21 59 4 l24 20 -27 -16 c-26 -16 -28 -16 -34 -1 -3 9 -1 23 6
31 7 9 10 18 7 22 -4 3 -2 12 4 19 11 13 5 34 -11 34 -4 0 -6 -9 -3 -19 5 -19
-59 -101 -78 -101 -23 0 -7 54 25 86 34 34 28 46 -10 19z"/>
<path d="M3450 1083 c30 -47 -44 -103 -136 -103 -32 0 -44 -4 -42 -12 11 -32
117 -14 168 28 34 29 40 73 13 95 -15 13 -15 12 -3 -8z"/>
<path d="M3755 1069 c-20 -38 -16 -93 6 -97 9 -2 30 9 45 23 l29 27 -29 -21
c-15 -11 -32 -18 -37 -15 -15 9 -10 45 12 80 17 29 18 34 5 34 -8 0 -23 -14
-31 -31z"/>
<path d="M5262 1073 c-19 -36 -22 -70 -8 -89 14 -19 15 -18 39 4 24 23 24 23
30 3 7 -27 28 -27 58 0 l24 20 -28 -17 c-36 -22 -43 -13 -28 37 7 22 9 44 5
47 -4 4 -9 2 -11 -5 -8 -24 -48 -77 -60 -81 -16 -5 -17 41 -3 68 6 12 7 21 1
25 -6 3 -14 -2 -19 -12z"/>
<path d="M5641 1068 c-20 -53 -21 -65 -7 -84 12 -15 17 -17 27 -6 10 9 10 12
1 12 -15 0 -16 44 -2 70 7 13 7 21 0 25 -6 3 -14 -4 -19 -17z"/>
<path d="M2302 1048 c-6 -18 -13 -41 -17 -50 -14 -34 19 -18 47 22 18 25 36
40 49 40 19 0 20 -4 14 -40 -6 -38 -5 -40 18 -40 14 0 33 7 41 16 22 22 20 31
-2 11 -27 -25 -45 -22 -36 6 4 12 8 31 8 42 1 30 -40 32 -70 4 l-24 -22 0 21
c0 33 -18 26 -28 -10z"/>
<path d="M5703 1040 c-12 -22 -18 -38 -13 -35 4 3 10 -4 13 -15 3 -11 13 -20
22 -20 14 0 15 3 5 15 -9 11 -9 22 -1 46 22 63 6 68 -26 9z"/>
<path d="M6474 1018 l-19 -23 23 19 c12 11 22 21 22 23 0 8 -8 2 -26 -19z"/>
<path d="M4589 1003 l-24 -28 28 24 c25 23 32 31 24 31 -2 0 -14 -12 -28 -27z"/>
<path d="M4244 998 l-19 -23 23 19 c21 18 27 26 19 26 -2 0 -12 -10 -23 -22z"/>
<path d="M5764 998 l-19 -23 23 19 c12 11 22 21 22 23 0 8 -8 2 -26 -19z"/>
<path d="M7414 998 l-19 -23 23 19 c12 11 22 21 22 23 0 8 -8 2 -26 -19z"/>
</g>
</svg>
