<?xml version="1.0" standalone="no"?>
<!DOCTYPE svg PUBLIC "-//W3C//DTD SVG 20010904//EN"
 "http://www.w3.org/TR/2001/REC-SVG-20010904/DTD/svg10.dtd">
<svg version="1.0" xmlns="http://www.w3.org/2000/svg"
 width="765.000000pt" height="724.000000pt" viewBox="0 0 765.000000 724.000000"
 preserveAspectRatio="xMidYMid meet">

<g transform="translate(0.000000,724.000000) scale(0.100000,-0.100000)"
fill="#000000" stroke="none">
<path d="M3560 7201 c-8 -5 -42 -12 -75 -15 -168 -19 -406 -82 -560 -149 -270
-117 -508 -280 -712 -488 -117 -120 -168 -183 -251 -305 -59 -88 -74 -113
-138 -229 -76 -139 -171 -416 -202 -590 -42 -234 -44 -250 -39 -440 6 -253 25
-380 94 -615 88 -298 257 -597 469 -829 117 -128 195 -200 324 -296 96 -71
280 -184 346 -211 20 -8 61 -27 92 -42 93 -45 343 -121 462 -141 248 -41 258
-42 446 -38 224 5 330 20 549 79 764 207 1369 833 1553 1608 17 69 30 138 44
220 16 99 16 506 0 580 -7 30 -17 84 -23 120 -12 73 -74 299 -94 345 -7 17
-19 46 -26 65 -101 272 -332 603 -570 815 -408 366 -937 566 -1495 565 -99 0
-186 -4 -194 -9z m530 -284 c631 -109 1159 -505 1432 -1074 354 -739 198
-1632 -384 -2199 -171 -167 -323 -274 -520 -369 -476 -229 -1032 -254 -1525
-69 -81 30 -268 123 -338 167 -162 102 -361 277 -474 416 -265 326 -411 707
-437 1146 -14 232 42 555 136 793 226 565 729 1004 1320 1152 100 25 148 34
295 54 63 9 414 -3 495 -17z"/>
<path d="M3763 6858 c-61 -44 -132 -190 -179 -367 -26 -102 -68 -303 -79 -386
-4 -27 -9 -58 -12 -67 -4 -17 16 -18 312 -18 l317 0 -7 58 c-11 94 -62 341
-90 436 -53 182 -119 310 -177 346 -41 25 -46 25 -85 -2z"/>
<path d="M3640 6853 c-220 -79 -420 -317 -560 -668 -18 -44 -36 -91 -40 -105
-4 -14 -11 -33 -15 -42 -7 -17 7 -18 199 -18 205 0 206 0 210 23 3 12 10 58
16 102 34 239 92 454 163 608 19 41 39 77 46 81 12 8 15 26 4 25 -5 0 -15 -3
-23 -6z"/>
<path d="M3961 6834 c2 -5 16 -32 31 -61 71 -133 140 -385 175 -634 l16 -119
71 -2 c161 -4 288 -3 292 4 13 20 -122 337 -189 443 -91 145 -211 275 -308
332 -62 37 -93 50 -88 37z"/>
<path d="M3307 6786 c-195 -80 -345 -184 -504 -350 -98 -102 -191 -227 -259
-347 -18 -33 -34 -63 -34 -65 0 -2 101 -4 225 -4 l224 0 11 43 c31 121 140
352 229 487 30 47 97 127 148 179 51 52 93 96 93 98 0 9 -35 -2 -133 -41z"/>
<path d="M4230 6728 c137 -138 273 -369 351 -598 18 -52 35 -99 39 -103 8 -9
387 -13 396 -4 10 9 -81 162 -157 263 -137 183 -331 351 -514 446 -82 42 -167
77 -188 78 -5 0 28 -37 73 -82z"/>
<path d="M4471 6736 c2 -2 42 -32 89 -67 197 -145 401 -384 507 -594 14 -27
31 -53 37 -57 13 -9 230 -11 239 -2 9 9 -65 115 -142 204 -168 195 -349 338
-567 449 -84 43 -178 81 -163 67z"/>
<path d="M2905 6660 c-194 -100 -386 -251 -531 -418 -66 -76 -164 -205 -164
-217 0 -3 51 -5 113 -5 l112 0 49 88 c126 221 275 398 459 541 61 48 74 61 63
61 -3 0 -48 -23 -101 -50z"/>
<path d="M2103 5837 c-108 -217 -175 -464 -190 -695 l-6 -103 154 3 154 3 7
126 c13 247 68 503 154 711 13 32 24 62 24 68 0 6 -44 10 -118 10 l-118 0 -61
-123z"/>
<path d="M2454 5904 c-103 -233 -182 -599 -172 -794 l3 -65 263 -3 c144 -1
262 -1 262 0 0 2 5 80 10 173 11 194 37 396 75 570 14 66 28 132 32 148 l6 27
-227 0 -227 0 -25 -56z"/>
<path d="M3001 5942 c-48 -91 -121 -565 -121 -794 l0 -108 243 0 244 0 7 230
c6 204 24 466 42 632 l7 57 -206 1 c-190 1 -207 -1 -216 -18z"/>
<path d="M3798 5952 c-294 -2 -318 -4 -318 -20 0 -9 -7 -82 -15 -162 -18 -177
-40 -691 -32 -714 6 -14 44 -16 378 -16 l372 0 -6 258 c-8 324 -35 646 -55
654 -4 2 -150 2 -324 0z"/>
<path d="M4200 5919 c0 -24 5 -75 10 -114 11 -90 30 -440 33 -620 l2 -140 225
0 225 0 -3 120 c-5 217 -37 463 -89 678 l-26 107 -173 0 c-95 0 -179 3 -188 6
-13 5 -16 -2 -16 -37z"/>
<path d="M5134 5948 c-2 -3 5 -28 17 -55 86 -200 140 -440 159 -698 5 -77 10
-143 10 -148 0 -4 73 -6 163 -5 l162 3 -3 85 c-6 158 -55 387 -119 550 -14 36
-48 111 -76 167 l-50 102 -130 3 c-71 2 -131 0 -133 -4z"/>
<path d="M4644 5933 c57 -204 98 -483 112 -755 l7 -138 243 0 c225 0 244 1
245 18 9 240 -62 601 -166 837 l-25 55 -211 0 c-196 0 -210 -1 -205 -17z"/>
<path d="M1913 4874 c14 -230 84 -479 196 -703 l51 -101 136 0 c105 0 135 3
131 13 -3 6 -24 55 -46 109 -83 196 -144 459 -157 681 l-7 107 -155 0 -155 0
6 -106z"/>
<path d="M2280 4927 c0 -214 89 -573 201 -811 l21 -46 220 0 c193 0 219 2 214
15 -9 23 -42 170 -60 260 -26 134 -46 302 -52 429 -3 67 -7 140 -10 164 l-5
42 -265 0 -264 0 0 -53z"/>
<path d="M2880 4883 c0 -188 37 -461 92 -685 l31 -128 212 0 211 0 -7 68 c-18
154 -39 450 -45 640 l-7 202 -243 0 -244 0 0 -97z"/>
<path d="M3434 4798 c11 -297 44 -710 57 -723 7 -6 627 -10 633 -4 14 13 46
427 53 662 l6 247 -378 0 -378 0 7 -182z"/>
<path d="M4237 4733 c-3 -137 -13 -324 -22 -418 -9 -93 -17 -188 -18 -210 l-2
-40 182 -3 c211 -3 190 -15 222 119 53 221 83 429 97 677 l7 122 -230 0 -230
0 -6 -247z"/>
<path d="M4756 4848 c-13 -235 -51 -503 -97 -675 -33 -123 -48 -113 171 -113
220 0 193 -15 258 140 96 229 162 524 162 728 l0 52 -244 0 -243 0 -7 -132z"/>
<path d="M5316 4938 c-3 -24 -8 -77 -11 -118 -17 -210 -78 -450 -172 -675 -18
-44 -33 -81 -33 -82 0 -2 65 -3 145 -3 l145 0 64 133 c109 224 163 417 185
657 6 63 11 118 11 123 0 4 -74 7 -164 7 l-165 0 -5 -42z"/>
<path d="M2210 4000 c0 -20 153 -211 239 -298 239 -240 539 -414 848 -491 109
-28 112 -26 18 13 -155 63 -235 109 -365 207 -114 86 -174 143 -264 253 -74
91 -110 141 -200 284 l-26 42 -125 0 c-73 0 -125 -4 -125 -10z"/>
<path d="M2547 4004 c-7 -7 79 -147 138 -224 105 -137 259 -281 394 -367 63
-40 249 -133 269 -133 20 0 15 9 -44 73 -115 128 -226 324 -304 540 l-43 117
-202 0 c-111 0 -204 -3 -208 -6z"/>
<path d="M3034 3997 c-8 -21 61 -192 133 -332 84 -162 227 -336 338 -410 58
-38 162 -82 171 -72 4 3 -7 27 -24 52 -71 107 -146 351 -193 627 -20 118 -26
138 -44 142 -11 3 -100 6 -198 6 -137 0 -179 -3 -183 -13z"/>
<path d="M3500 3991 c0 -20 52 -290 71 -368 62 -257 157 -433 234 -433 87 0
172 157 243 450 34 137 62 289 62 333 l0 27 -305 0 c-182 0 -305 -4 -305 -9z"/>
<path d="M4176 3973 c-3 -16 -15 -82 -26 -148 -44 -249 -95 -423 -161 -544
-22 -40 -37 -76 -34 -79 10 -11 100 40 167 95 107 87 207 219 293 384 45 88
125 283 125 306 0 10 -38 13 -179 13 l-179 0 -6 -27z"/>
<path d="M4580 3908 c-66 -193 -193 -421 -307 -555 -25 -29 -42 -53 -37 -53
18 0 161 77 239 129 185 123 373 324 488 524 l28 47 -189 0 -189 0 -33 -92z"/>
<path d="M5017 3923 c-123 -211 -315 -417 -512 -550 -80 -54 -210 -118 -320
-159 -112 -41 -77 -44 70 -5 369 98 705 311 949 600 80 96 136 171 136 183 0
4 -62 8 -139 8 l-138 0 -46 -77z"/>
<path d="M271 2325 c-139 -39 -223 -143 -225 -279 -1 -78 16 -134 57 -188 42
-55 84 -83 155 -104 118 -34 312 2 312 58 0 13 -4 18 -8 12 -16 -23 -94 -44
-165 -44 -59 0 -83 5 -126 26 -94 47 -147 152 -139 273 8 103 51 173 130 206
47 19 167 20 213 1 37 -16 68 -55 63 -82 -2 -9 2 -19 8 -21 13 -4 29 107 17
117 -32 29 -220 45 -292 25z"/>
<path d="M826 2324 c-134 -43 -206 -143 -206 -284 0 -131 47 -215 150 -268 62
-32 69 -33 150 -30 95 5 144 24 210 84 82 74 120 219 85 324 -23 68 -81 131
-147 160 -67 29 -176 35 -242 14z m221 -60 c78 -62 113 -199 84 -330 -38 -170
-249 -221 -359 -88 -86 104 -92 306 -12 397 38 44 78 56 172 54 68 -2 80 -5
115 -33z"/>
<path d="M2993 2321 c-126 -43 -195 -143 -195 -284 0 -179 102 -287 279 -295
70 -3 89 -1 135 21 116 53 188 157 191 278 2 95 -18 154 -72 210 -78 80 -221
110 -338 70z m234 -57 c77 -61 111 -193 84 -325 -34 -162 -225 -224 -344 -111
-103 98 -117 330 -25 419 47 45 72 53 165 50 74 -2 85 -5 120 -33z"/>
<path d="M4485 2283 c-9 -27 -49 -129 -88 -227 -51 -130 -73 -174 -78 -160
-15 41 -70 294 -76 347 -6 56 -5 57 20 57 14 0 29 5 32 10 4 6 -32 10 -100 10
-68 0 -104 -4 -100 -10 3 -5 15 -10 25 -10 10 0 22 -6 27 -12 4 -7 35 -130 68
-273 77 -332 76 -331 159 -113 32 84 66 171 76 193 9 22 22 53 29 69 6 16 14
27 16 25 5 -6 124 -332 141 -391 12 -40 19 -48 39 -48 18 0 25 7 31 33 13 60
141 495 150 509 3 4 14 8 25 8 10 0 19 5 19 10 0 6 -35 10 -86 10 -54 0 -83
-4 -79 -10 3 -5 20 -10 37 -10 30 0 31 0 24 -42 -10 -64 -98 -378 -106 -378
-6 0 -92 236 -153 418 -15 45 -31 40 -52 -15z"/>
<path d="M5073 2322 c-79 -1 -143 -7 -143 -12 0 -5 15 -10 32 -12 43 -4 46
-17 46 -253 0 -231 -3 -245 -45 -265 -18 -8 -33 -18 -33 -23 0 -4 98 -6 218
-5 l217 3 3 68 c3 74 -11 85 -23 17 -4 -24 -13 -41 -23 -44 -37 -10 -171 -17
-206 -11 l-36 7 0 113 c0 99 2 113 18 117 28 6 147 2 160 -5 6 -4 14 -23 18
-42 12 -65 24 -35 24 60 0 93 -11 123 -25 68 -9 -39 -19 -43 -113 -43 l-83 0
3 113 3 112 91 3 c118 4 144 -6 144 -52 0 -35 17 -58 24 -34 3 7 7 36 10 65
l6 51 -72 4 c-40 2 -137 2 -215 0z"/>
<path d="M5699 2303 c-9 -24 -50 -119 -79 -183 -7 -14 -42 -92 -79 -175 -58
-131 -71 -152 -99 -165 -17 -8 -32 -18 -32 -22 0 -5 43 -8 95 -8 57 0 95 4 95
10 0 6 -9 10 -19 10 -58 0 -64 24 -25 112 l27 59 120 -3 120 -3 27 -65 c15
-36 25 -70 23 -77 -3 -7 -20 -15 -39 -19 -68 -13 -32 -24 76 -24 65 0 110 4
110 10 0 5 -10 12 -23 15 -30 8 -42 29 -111 195 -32 74 -70 164 -86 200 -15
36 -37 86 -48 113 -24 53 -38 59 -53 20z m11 -96 c0 -2 20 -53 45 -113 25 -59
45 -112 45 -116 0 -5 -45 -8 -100 -8 -55 0 -100 3 -100 7 0 17 94 233 101 233
5 0 9 -1 9 -3z"/>
<path d="M1250 2310 c0 -5 13 -10 28 -10 51 0 52 -6 52 -261 0 -258 -2 -269
-56 -269 -13 0 -24 -4 -24 -10 0 -6 38 -10 95 -10 57 0 95 4 95 10 0 6 -11 10
-24 10 -53 0 -56 14 -56 236 0 112 3 204 8 204 4 0 56 -104 116 -230 60 -127
113 -233 118 -236 4 -3 17 14 27 38 18 41 133 286 186 393 l24 50 0 -217 c1
-205 0 -218 -18 -228 -11 -5 -29 -10 -40 -10 -12 0 -21 -4 -21 -10 0 -6 47
-10 120 -10 73 0 120 4 120 10 0 6 -9 10 -21 10 -11 0 -29 5 -40 10 -18 10
-19 24 -19 250 0 131 3 245 6 254 4 9 18 16 34 16 16 0 32 5 35 10 4 6 -23 10
-75 10 -68 0 -82 -3 -87 -17 -3 -10 -25 -58 -48 -108 -106 -225 -156 -325
-161 -325 -5 0 -35 61 -165 338 l-53 112 -78 0 c-45 0 -78 -4 -78 -10z"/>
<path d="M2020 2310 c0 -5 13 -10 28 -10 15 0 33 -5 40 -12 16 -16 17 -470 2
-499 -7 -12 -21 -19 -40 -19 -17 0 -30 -4 -30 -10 0 -6 38 -10 95 -10 57 0 95
4 95 10 0 6 -11 10 -24 10 -53 0 -56 14 -56 241 0 115 2 209 5 209 5 0 48 -87
181 -369 32 -67 58 -111 63 -105 5 5 58 114 117 243 l109 233 3 -213 c2 -192
1 -215 -15 -226 -9 -7 -27 -13 -41 -13 -13 0 -20 -4 -17 -10 4 -6 55 -10 121
-10 69 0 114 4 114 10 0 6 -9 10 -21 10 -11 0 -29 5 -40 10 -18 10 -19 24 -19
253 0 257 2 267 46 267 13 0 26 5 29 10 4 6 -23 10 -75 10 -68 0 -82 -3 -87
-17 -16 -49 -201 -433 -208 -433 -3 0 -31 53 -61 118 -30 64 -78 165 -106 225
l-52 107 -78 0 c-45 0 -78 -4 -78 -10z"/>
<path d="M3430 2310 c0 -5 13 -10 29 -10 17 0 31 -6 35 -16 3 -9 6 -122 6
-253 0 -255 -1 -261 -52 -261 -15 0 -28 -4 -28 -10 0 -6 40 -10 100 -10 60 0
100 4 100 10 0 6 -13 10 -28 10 -50 0 -52 7 -52 244 l0 221 25 -31 c48 -61
336 -409 361 -436 15 -16 36 -28 50 -28 l24 0 0 268 c0 288 1 292 52 292 15 0
28 5 28 10 0 6 -38 10 -95 10 -52 0 -95 -4 -95 -9 0 -6 14 -11 32 -13 26 -2
33 -9 40 -33 10 -37 9 -413 -1 -419 -4 -3 -25 18 -47 46 -21 28 -43 56 -49 62
-6 6 -26 31 -45 56 -50 66 -223 283 -237 298 -14 15 -153 17 -153 2z"/>
<path d="M6050 2310 c0 -5 13 -10 28 -10 51 0 52 -6 52 -261 l0 -238 -25 -19
c-14 -11 -25 -23 -25 -26 0 -3 92 -6 205 -6 156 0 207 3 209 13 3 6 7 38 9 70
4 43 2 57 -8 57 -8 0 -16 -16 -20 -39 -4 -22 -12 -44 -18 -49 -16 -13 -178
-25 -222 -16 l-35 6 0 228 c0 126 4 240 10 254 7 20 16 26 40 26 16 0 30 5 30
10 0 6 -45 10 -115 10 -70 0 -115 -4 -115 -10z"/>
<path d="M6480 2253 c0 -71 15 -78 29 -11 l7 33 77 3 77 3 0 -245 c0 -232 -1
-246 -19 -256 -11 -5 -29 -10 -41 -10 -12 0 -18 -4 -15 -10 4 -6 55 -10 121
-10 69 0 114 4 114 10 0 6 -9 10 -21 10 -11 0 -29 5 -40 10 -18 10 -19 24 -19
255 l0 245 80 0 79 0 7 -37 c4 -21 9 -42 12 -48 8 -14 20 32 21 83 l1 42 -235
0 -235 0 0 -67z"/>
<path d="M6980 2310 c0 -5 13 -10 30 -10 22 0 31 -5 35 -22 3 -13 4 -129 3
-258 l-3 -235 -32 -10 c-60 -17 -34 -25 82 -25 70 0 115 4 115 10 0 6 -9 10
-21 10 -11 0 -29 5 -40 10 -17 10 -19 22 -19 135 l0 125 165 0 165 0 0 -123
c0 -130 -5 -147 -47 -147 -13 0 -23 -4 -23 -10 0 -6 45 -10 115 -10 70 0 115
4 115 10 0 6 -11 10 -24 10 -54 0 -56 11 -56 269 0 250 2 261 46 261 13 0 26
5 29 10 4 6 -35 10 -109 10 -66 0 -116 -4 -116 -9 0 -6 15 -11 33 -13 l32 -3
3 -112 3 -113 -166 0 -165 0 0 103 c0 112 6 127 52 127 15 0 28 5 28 10 0 6
-45 10 -115 10 -70 0 -115 -4 -115 -10z"/>
<path d="M20 1450 c0 -20 7 -20 3780 -20 3773 0 3780 0 3780 20 0 20 -7 20
-3780 20 -3773 0 -3780 0 -3780 -20z"/>
<path d="M5001 1214 c-119 -35 -178 -167 -116 -260 21 -32 52 -44 150 -56 103
-13 131 -28 146 -77 15 -51 -2 -103 -44 -133 -43 -31 -147 -37 -197 -11 -31
16 -35 23 -38 61 -2 28 -8 42 -18 42 -11 0 -14 -15 -14 -65 l0 -64 52 -16 c65
-19 101 -19 169 1 98 29 158 94 161 176 4 96 -34 129 -170 148 -116 16 -151
41 -154 108 -2 50 19 84 65 106 79 37 187 -1 187 -66 0 -18 5 -28 15 -28 10 0
15 10 15 33 0 17 3 42 6 53 5 18 0 24 -31 34 -64 21 -140 27 -184 14z"/>
<path d="M145 1199 c-76 -41 -112 -108 -99 -186 12 -74 48 -99 165 -114 124
-15 159 -40 159 -111 0 -76 -60 -128 -147 -128 -55 0 -121 21 -135 43 -4 7 -8
27 -8 45 0 34 -14 43 -24 16 -3 -9 -6 -37 -6 -63 0 -47 1 -48 39 -59 106 -32
195 -20 269 35 69 52 98 141 67 207 -20 41 -56 61 -132 71 -135 18 -183 48
-183 112 0 80 58 129 145 120 68 -7 93 -23 106 -69 12 -46 24 -49 33 -7 14 70
10 77 -46 94 -75 22 -155 20 -203 -6z"/>
<path d="M771 1198 c-115 -44 -182 -148 -182 -282 0 -151 96 -256 262 -286 92
-17 216 8 254 50 25 27 15 33 -24 14 -18 -9 -61 -21 -96 -27 -119 -20 -236 37
-286 140 -33 68 -34 200 -2 259 36 67 95 112 159 120 128 16 224 -25 224 -95
0 -35 17 -23 24 17 12 77 12 78 -59 96 -90 23 -206 20 -274 -6z"/>
<path d="M2253 1199 c-58 -22 -114 -74 -145 -134 -31 -58 -37 -186 -12 -255
70 -195 322 -249 483 -104 60 54 84 96 101 178 29 140 -36 266 -162 317 -62
25 -196 24 -265 -2z m246 -44 c63 -43 93 -107 99 -206 11 -189 -63 -288 -214
-289 -50 0 -68 5 -99 26 -84 57 -118 130 -119 259 -1 75 3 98 22 137 39 80 95
109 202 105 53 -2 73 -8 109 -32z"/>
<path d="M3743 1208 c-6 -7 -27 -51 -47 -98 -37 -90 -148 -337 -181 -405 -15
-30 -27 -41 -47 -43 -16 -2 -28 -8 -28 -13 0 -5 43 -9 95 -9 52 0 95 4 95 9 0
6 -15 11 -32 13 -30 3 -33 6 -32 33 1 17 12 53 25 80 l24 50 120 0 120 0 27
-69 c30 -75 27 -96 -18 -96 -12 0 -26 -4 -29 -10 -4 -6 33 -10 104 -10 67 0
111 4 111 10 0 6 -6 10 -13 10 -32 0 -53 40 -157 284 -60 143 -113 263 -118
268 -5 5 -13 3 -19 -4z m7 -140 c7 -18 22 -53 33 -78 11 -25 28 -64 38 -87
l18 -43 -105 0 c-58 0 -104 4 -102 9 44 113 94 231 99 231 4 0 12 -15 19 -32z"/>
<path d="M7305 1206 c-93 -43 -139 -148 -100 -230 22 -45 58 -63 155 -76 99
-13 130 -26 148 -60 17 -33 9 -105 -14 -132 -45 -50 -146 -63 -221 -28 -41 18
-43 21 -43 60 0 68 -24 44 -28 -27 -4 -68 -9 -63 82 -83 142 -31 283 51 301
175 14 93 -31 133 -177 156 -115 18 -148 42 -148 111 0 50 32 95 77 107 89 25
156 2 175 -60 12 -40 28 -52 28 -21 0 9 3 33 6 53 6 36 6 37 -42 53 -57 19
-158 20 -199 2z"/>
<path d="M1280 1200 c0 -5 9 -10 21 -10 11 0 29 -5 40 -10 18 -10 19 -24 19
-259 0 -270 2 -261 -56 -261 -13 0 -24 -4 -24 -10 0 -6 47 -10 121 -10 77 0
118 4 114 10 -3 6 -19 10 -35 10 -16 0 -30 7 -34 16 -3 9 -6 69 -6 135 l0 119
165 0 165 0 0 -122 c0 -68 -4 -128 -8 -135 -4 -6 -20 -13 -35 -15 -15 -1 -29
-7 -30 -12 -2 -8 223 -9 232 -1 4 5 -10 10 -51 19 l-28 6 0 250 c0 236 1 250
19 260 11 5 29 10 40 10 12 0 21 5 21 10 0 6 -47 10 -120 10 -73 0 -120 -4
-120 -10 0 -5 11 -10 24 -10 46 0 56 -22 56 -131 l0 -99 -165 0 -165 0 0 105
c0 93 2 105 19 115 11 5 29 10 40 10 12 0 21 5 21 10 0 6 -47 10 -120 10 -73
0 -120 -4 -120 -10z"/>
<path d="M2840 1201 c0 -5 16 -12 35 -15 25 -5 36 -13 41 -30 3 -13 4 -123 2
-245 -3 -217 -4 -223 -25 -241 -13 -10 -23 -21 -23 -24 0 -3 92 -6 204 -6
l205 0 6 48 c3 26 8 57 11 70 3 14 0 22 -9 22 -7 0 -19 -21 -26 -49 l-13 -50
-51 -6 c-29 -3 -86 -5 -127 -3 l-75 3 -3 230 c-1 127 0 240 3 252 4 16 15 24
40 29 70 13 33 24 -80 24 -63 0 -115 -4 -115 -9z"/>
<path d="M4200 1200 c0 -5 9 -10 21 -10 11 0 29 -5 40 -10 18 -10 19 -24 19
-253 0 -257 -2 -267 -46 -267 -13 0 -26 -4 -29 -10 -4 -6 37 -10 115 -10 78 0
119 4 115 10 -3 6 -19 10 -35 10 -22 0 -31 6 -35 23 -3 12 -4 128 -3 257 l3
235 65 3 c107 4 159 -47 139 -137 -11 -52 -45 -79 -114 -92 -33 -7 -61 -13
-63 -15 -2 -1 16 -26 40 -56 24 -29 75 -95 113 -146 l70 -92 58 0 c31 0 57 4
57 10 0 6 -6 10 -14 10 -8 0 -29 17 -46 38 -59 72 -170 217 -170 222 0 3 24
17 52 31 73 34 101 78 96 146 -5 55 -26 85 -76 104 -33 13 -372 12 -372 -1z"/>
<path d="M5410 1201 c0 -5 16 -12 35 -15 l35 -7 -2 -257 -3 -257 -32 -3 c-18
-2 -33 -7 -33 -13 0 -5 50 -9 116 -9 74 0 113 4 109 10 -3 6 -17 10 -29 10
-41 0 -47 19 -44 146 l3 119 162 3 162 2 7 -45 c6 -44 -1 -170 -12 -207 -4
-12 -15 -18 -35 -18 -16 0 -29 -4 -29 -10 0 -6 45 -10 116 -10 74 0 113 4 109
10 -3 6 -16 10 -29 10 -44 0 -46 10 -46 267 0 229 1 243 19 253 11 5 29 10 40
10 12 0 21 5 21 10 0 6 -45 10 -115 10 -112 0 -150 -11 -81 -24 l33 -6 7 -88
c10 -139 26 -127 -167 -130 l-167 -2 0 94 c0 52 3 101 6 110 3 8 21 18 40 22
69 13 31 24 -81 24 -63 0 -115 -4 -115 -9z"/>
<path d="M6200 1202 c0 -5 17 -13 38 -18 l37 -9 3 -244 c2 -171 -1 -248 -9
-257 -6 -8 -24 -14 -40 -14 -16 0 -29 -4 -29 -10 0 -6 47 -10 122 -10 75 0
118 4 113 9 -6 5 -23 11 -40 13 l-30 3 -3 257 -2 258 40 6 c77 13 39 24 -80
24 -66 0 -120 -4 -120 -8z"/>
<path d="M6590 1201 c0 -6 11 -11 24 -11 54 0 56 -11 56 -269 0 -255 -1 -261
-52 -261 -15 0 -28 -4 -28 -10 0 -6 45 -10 115 -10 70 0 115 4 115 10 0 6 -13
10 -28 10 -51 0 -52 6 -52 266 0 211 2 243 16 248 32 12 120 6 154 -12 67 -33
78 -136 20 -194 -24 -23 -37 -28 -79 -28 -39 0 -51 -4 -51 -15 0 -11 11 -15
38 -15 60 0 111 19 153 57 74 67 75 164 2 213 -35 24 -43 25 -220 28 -126 3
-183 0 -183 -7z"/>
</g>
</svg>
