<?xml version="1.0" standalone="no"?>
<!DOCTYPE svg PUBLIC "-//W3C//DTD SVG 20010904//EN"
 "http://www.w3.org/TR/2001/REC-SVG-20010904/DTD/svg10.dtd">
<svg version="1.0" xmlns="http://www.w3.org/2000/svg"
 width="225.000000pt" height="225.000000pt" viewBox="0 0 225.000000 225.000000"
 preserveAspectRatio="xMidYMid meet">

<g transform="translate(0.000000,225.000000) scale(0.100000,-0.100000)"
fill="#000000" stroke="none">
<path d="M686 1744 c-140 -34 -266 -140 -334 -281 -37 -78 -37 -78 -37 -209
l0 -131 42 -85 c173 -348 627 -390 860 -80 61 82 84 149 90 263 9 161 -32 274
-139 385 -124 130 -304 181 -482 138z"/>
<path d="M1840 645 c0 -33 -2 -35 -20 -25 -40 22 -90 -12 -90 -61 0 -46 30
-68 89 -67 l51 1 0 94 c0 76 -3 93 -15 93 -11 0 -15 -11 -15 -35z m-12 -57
c34 -34 -6 -90 -48 -68 -35 19 -20 80 20 80 9 0 21 -5 28 -12z"/>
<path d="M967 663 c-4 -3 -7 -15 -7 -25 0 -11 -4 -16 -10 -13 -5 3 -10 -1 -10
-9 0 -9 5 -16 10 -16 6 0 10 -13 10 -29 0 -55 16 -81 50 -81 20 0 30 5 30 15
0 9 -6 15 -12 14 -32 -4 -38 2 -38 41 0 36 3 40 25 40 14 0 25 6 25 13 0 8
-10 13 -22 13 -17 -1 -24 5 -26 22 -3 22 -13 28 -25 15z"/>
<path d="M390 558 c0 -53 3 -68 14 -68 11 0 16 15 18 53 3 48 5 52 28 52 23 0
25 -4 28 -52 2 -37 7 -53 17 -53 10 0 15 16 17 53 3 48 5 52 28 52 23 0 25 -4
28 -52 2 -38 7 -53 18 -53 10 0 14 14 14 54 0 65 -19 91 -59 81 -28 -7 -34 -7
-103 -2 l-48 4 0 -69z"/>
<path d="M656 609 c-32 -25 -35 -70 -7 -98 15 -15 33 -20 70 -19 l51 1 0 63
c0 59 -14 90 -29 66 -4 -7 -12 -8 -21 -2 -22 14 -35 12 -64 -11z m72 -21 c34
-34 -6 -90 -48 -68 -35 19 -20 80 20 80 9 0 21 -5 28 -12z"/>
<path d="M819 612 c-25 -21 -21 -49 8 -58 10 -3 29 -10 43 -16 22 -9 23 -11 7
-20 -10 -5 -32 -6 -49 -3 -23 6 -29 4 -26 -6 7 -21 88 -18 102 4 15 24 -3 51
-40 57 -37 7 -33 19 8 23 38 4 48 22 16 31 -35 9 -44 7 -69 -12z"/>
<path d="M1092 614 c-28 -20 -31 -83 -4 -107 20 -18 68 -22 91 -8 18 11 -4 25
-26 17 -22 -9 -53 3 -53 20 0 10 13 14 45 14 41 0 45 2 45 24 0 26 -33 56 -60
56 -9 0 -26 -7 -38 -16z m72 -29 c4 -12 -3 -15 -29 -15 -33 0 -43 8 -28 23 12
13 51 7 57 -8z"/>
<path d="M1230 558 c0 -54 3 -68 15 -68 11 0 15 12 15 50 0 45 3 52 25 60 38
14 30 28 -15 26 l-40 -1 0 -67z"/>
<path d="M1345 605 c-31 -30 -31 -54 -4 -89 17 -22 28 -26 55 -24 43 4 45 23
4 23 -31 0 -50 17 -50 46 0 24 25 41 56 37 34 -4 43 17 12 26 -38 10 -48 7
-73 -19z"/>
<path d="M1480 610 c-25 -25 -26 -81 -2 -103 12 -11 33 -16 65 -15 l47 2 0 68
c0 39 -4 68 -10 68 -5 0 -10 -5 -10 -10 0 -7 -6 -7 -19 0 -29 15 -49 12 -71
-10z m80 -25 c15 -18 6 -61 -16 -69 -26 -10 -54 12 -54 43 0 15 3 31 7 34 12
12 50 7 63 -8z"/>
<path d="M1640 560 c0 -40 4 -70 10 -70 6 0 10 19 10 43 0 49 8 63 34 68 11 2
21 10 24 17 5 16 -30 16 -46 0 -9 -9 -12 -9 -12 0 0 7 -4 12 -10 12 -6 0 -10
-30 -10 -70z"/>
</g>
</svg>
