<?xml version="1.0" standalone="no"?>
<!DOCTYPE svg PUBLIC "-//W3C//DTD SVG 20010904//EN"
 "http://www.w3.org/TR/2001/REC-SVG-20010904/DTD/svg10.dtd">
<svg version="1.0" xmlns="http://www.w3.org/2000/svg"
 width="186.000000pt" height="186.000000pt" viewBox="0 0 186.000000 186.000000"
 preserveAspectRatio="xMidYMid meet">

<g transform="translate(0.000000,186.000000) scale(0.100000,-0.100000)"
fill="#000000" stroke="none">
<path d="M990 670 c0 -183 1 -190 20 -190 19 0 20 7 20 117 l0 117 75 -74 75
-74 75 74 75 74 0 -117 0 -117 45 0 45 0 0 190 0 190 -23 0 c-15 0 -52 -29
-112 -90 l-89 -89 -92 89 c-51 50 -98 90 -104 90 -6 0 -10 -65 -10 -190z"/>
<path d="M1500 670 l0 -190 110 0 c103 0 110 1 110 20 0 18 -7 20 -65 20 l-65
0 0 170 0 170 -45 0 -45 0 0 -190z"/>
<path d="M617 434 c-4 -4 -7 -92 -7 -196 l0 -189 107 3 c93 3 108 5 111 21 3
15 -5 17 -62 17 l-66 0 -2 173 -3 172 -35 3 c-20 2 -39 0 -43 -4z"/>
<path d="M1260 240 l0 -190 96 0 c92 0 97 1 125 29 28 28 29 34 29 115 0 95
-11 129 -47 145 -38 17 -100 14 -112 -6 -8 -14 -10 -4 -11 40 l0 57 -40 0 -40
0 0 -190z m152 53 c14 -13 18 -31 18 -91 0 -86 -15 -112 -62 -112 l-28 0 0
100 c0 84 3 101 18 109 24 14 33 13 54 -6z"/>
<path d="M946 329 c-30 -24 -35 -59 -8 -59 9 0 23 9 30 20 19 31 86 28 108 -5
29 -44 16 -59 -53 -65 -76 -6 -107 -31 -107 -85 0 -48 30 -76 88 -82 36 -4 51
-2 66 12 18 16 20 17 20 2 0 -13 9 -17 40 -17 l40 0 0 121 c0 120 0 121 -29
150 -27 26 -35 29 -99 29 -55 0 -75 -4 -96 -21z m144 -173 c0 -13 -8 -34 -19
-47 -16 -21 -22 -22 -45 -11 -17 8 -26 19 -26 35 0 32 18 47 57 47 28 0 33 -4
33 -24z"/>
<path d="M1629 321 c-53 -54 -39 -92 59 -154 46 -30 53 -50 22 -67 -24 -13
-56 -5 -64 15 -7 19 -46 20 -46 1 0 -34 36 -59 93 -64 52 -4 58 -2 87 26 29
30 39 73 22 98 -4 6 -33 27 -64 47 -32 20 -58 43 -58 50 0 38 61 50 82 17 15
-24 48 -27 48 -5 0 9 -11 27 -25 40 -19 20 -34 25 -75 25 -44 0 -56 -5 -81
-29z"/>
</g>
</svg>
