<?xml version="1.0" standalone="no"?>
<!DOCTYPE svg PUBLIC "-//W3C//DTD SVG 20010904//EN"
 "http://www.w3.org/TR/2001/REC-SVG-20010904/DTD/svg10.dtd">
<svg version="1.0" xmlns="http://www.w3.org/2000/svg"
 width="225.000000pt" height="225.000000pt" viewBox="0 0 225.000000 225.000000"
 preserveAspectRatio="xMidYMid meet">

<g transform="translate(0.000000,225.000000) scale(0.100000,-0.100000)"
fill="#000000" stroke="none">
<path d="M2059 1383 c0 -5 0 -48 1 -97 1 -64 -2 -91 -12 -97 -8 -6 -1 -9 22
-9 26 0 31 3 22 12 -8 8 -12 46 -12 105 0 55 -4 93 -10 93 -5 0 -10 -3 -11 -7z"/>
<path d="M1512 1369 c2 -6 8 -10 13 -10 5 0 11 4 13 10 2 6 -4 11 -13 11 -9 0
-15 -5 -13 -11z"/>
<path d="M1078 1289 c2 -52 -1 -85 -8 -95 -11 -12 -7 -14 21 -14 29 0 31 1 15
13 -14 10 -16 25 -14 77 l3 65 60 -80 c68 -90 61 -94 67 48 3 61 1 67 -17 67
-14 0 -16 -3 -7 -9 9 -5 12 -27 10 -72 l-3 -63 -53 72 c-30 40 -59 72 -65 72
-9 0 -11 -24 -9 -81z"/>
<path d="M1416 1340 c-8 -27 -8 -90 0 -132 4 -20 12 -28 27 -28 16 0 18 3 9
12 -7 7 -12 36 -12 64 0 42 4 53 18 57 14 4 14 5 1 6 -9 0 -20 11 -26 23 l-10
22 -7 -24z"/>
<path d="M1287 1313 c-3 -5 7 -9 21 -8 21 0 28 -5 30 -22 3 -18 -2 -23 -18
-23 -49 0 -79 -42 -47 -67 18 -15 111 -14 98 1 -5 6 -11 36 -13 66 -3 54 -4
55 -35 58 -17 2 -33 -1 -36 -5z m53 -87 c0 -29 -28 -42 -48 -22 -20 20 -8 46
23 46 20 0 25 -5 25 -24z"/>
<path d="M1508 1308 c7 -7 12 -33 12 -58 0 -25 -5 -51 -12 -58 -9 -9 -7 -12
13 -12 23 0 24 1 21 70 -3 64 -6 70 -25 70 -16 0 -18 -3 -9 -12z"/>
<path d="M1597 1302 c-23 -25 -22 -85 1 -105 43 -40 102 -4 102 61 0 21 -5 43
-12 50 -18 18 -73 14 -91 -6z m71 -4 c7 -7 12 -28 12 -48 0 -55 -32 -77 -64
-44 -16 16 -21 59 -10 88 7 19 45 21 62 4z"/>
<path d="M1738 1313 c16 -6 16 -105 0 -121 -9 -9 -4 -12 23 -12 22 0 29 3 21
9 -9 5 -12 25 -10 62 3 50 5 54 28 54 24 0 25 -2 25 -63 0 -59 1 -62 24 -62
18 0 21 3 13 13 -6 7 -12 37 -14 67 l-3 55 -60 1 c-33 1 -54 0 -47 -3z"/>
<path d="M1926 1311 c-3 -4 6 -6 19 -3 14 2 26 -1 27 -7 0 -6 1 -16 2 -22 1
-6 -15 -16 -34 -23 -30 -9 -35 -16 -35 -41 0 -30 0 -30 60 -31 33 -1 54 1 48
3 -8 3 -13 23 -13 53 0 27 -3 55 -6 64 -6 17 -59 22 -68 7z m54 -80 c0 -24
-25 -45 -45 -37 -15 5 -21 37 -8 49 3 4 17 7 30 7 16 0 23 -6 23 -19z"/>
<path d="M1405 1073 c-6 -2 -9 -39 -7 -94 3 -68 0 -94 -10 -100 -8 -6 -1 -9
21 -9 26 0 31 3 23 13 -6 7 -13 54 -14 103 -2 55 -7 89 -13 87z"/>
<path d="M1475 1069 c-11 -4 -14 -8 -7 -8 9 -1 12 -26 12 -90 0 -62 -4 -91
-12 -94 -7 -3 3 -6 22 -6 20 0 30 3 23 7 -8 5 -13 42 -15 103 -3 91 -4 96 -23
88z"/>
<path d="M1123 1063 c-61 -12 -86 -121 -38 -168 16 -17 35 -25 59 -25 33 0 66
20 66 41 0 5 -9 0 -20 -11 -25 -25 -51 -25 -81 -1 -19 16 -24 29 -24 69 0 27
6 56 14 65 17 21 65 22 85 2 19 -19 26 -19 26 0 0 14 -41 37 -58 34 -4 -1 -17
-4 -29 -6z"/>
<path d="M2086 985 c-4 -26 -6 -49 -4 -51 8 -7 25 75 18 86 -4 7 -11 -9 -14
-35z"/>
<path d="M1765 1013 c-59 -7 -74 -13 -80 -34 -4 -13 0 -27 11 -40 11 -12 13
-19 5 -19 -7 0 -11 -8 -10 -17 1 -10 -2 -26 -6 -37 -12 -27 7 -50 43 -54 45
-5 72 13 72 47 0 32 -14 41 -62 41 -37 0 -33 24 5 28 14 2 30 9 35 15 8 10 26
80 19 76 -1 -1 -15 -4 -32 -6z m0 -33 c8 -25 -1 -40 -25 -40 -21 0 -40 28 -33
48 8 20 51 14 58 -8z m10 -130 c0 -21 -5 -26 -33 -28 -22 -2 -34 2 -38 12 -12
30 4 47 38 44 28 -2 33 -7 33 -28z"/>
<path d="M2040 1005 c7 -9 10 -26 6 -42 -5 -21 -4 -24 4 -13 15 23 12 57 -6
64 -14 5 -15 4 -4 -9z"/>
<path d="M1257 992 c-21 -23 -22 -86 -1 -106 54 -55 132 32 94 105 -14 25 -71
26 -93 1z m77 -24 c19 -55 -22 -109 -59 -78 -15 13 -20 65 -9 95 11 27 57 15
68 -17z"/>
<path d="M1556 988 c-46 -66 20 -151 84 -108 11 8 8 9 -12 4 -19 -4 -32 0 -47
15 -31 31 -26 41 24 41 40 0 45 2 45 23 0 13 -5 28 -12 35 -20 20 -65 14 -82
-10z m72 -15 c3 -19 -1 -23 -26 -23 -36 0 -44 8 -31 32 14 26 53 20 57 -9z"/>
<path d="M1845 996 c-26 -19 -26 -94 1 -113 21 -16 53 -17 74 -2 12 8 10 9 -7
4 -29 -8 -63 11 -63 35 0 17 7 20 40 20 45 0 58 16 40 49 -13 25 -56 28 -85 7z
m64 -15 c13 -23 5 -31 -31 -31 -20 0 -28 5 -28 18 0 10 3 22 7 25 13 13 42 7
52 -12z"/>
<path d="M2000 996 c-15 -20 -9 -61 10 -62 9 0 10 1 3 3 -16 6 -17 45 -1 61 7
7 9 12 6 12 -3 0 -11 -7 -18 -14z"/>
<path d="M1470 770 c-10 -6 -11 -10 -2 -10 9 0 12 -29 12 -109 0 -78 -4 -111
-12 -114 -7 -3 5 -5 27 -5 22 0 34 2 28 5 -10 3 -13 38 -13 124 0 122 -4 132
-40 109z"/>
<path d="M2040 770 c-10 -6 -11 -10 -2 -10 7 0 12 -13 12 -30 0 -27 -3 -30
-33 -30 -50 0 -77 -34 -77 -97 0 -55 14 -76 52 -74 13 0 43 1 68 1 25 1 39 4
33 7 -10 3 -13 38 -13 124 0 122 -4 132 -40 109z m-2 -89 c9 -5 12 -27 10 -72
-3 -60 -4 -64 -29 -67 -31 -4 -48 15 -56 62 -9 60 33 104 75 77z"/>
<path d="M1068 753 c8 -3 12 -35 12 -108 0 -73 -4 -105 -12 -108 -7 -3 7 -6
32 -6 35 0 41 2 28 10 -15 8 -18 25 -18 104 0 79 3 96 18 104 13 8 7 10 -28
10 -25 0 -39 -3 -32 -6z"/>
<path d="M1177 688 c-9 -6 -9 -8 1 -8 8 0 12 -21 12 -69 0 -58 -3 -70 -17 -74
-10 -3 2 -5 27 -6 35 0 41 2 28 10 -13 7 -18 23 -18 59 0 26 3 55 6 64 7 19
44 22 44 4 0 -13 20 10 20 24 0 9 -89 5 -103 -4z"/>
<path d="M1328 690 c-9 -6 -22 -26 -28 -45 -24 -74 29 -140 93 -116 36 14 34
22 -2 15 -22 -5 -34 -1 -51 16 -35 35 -23 55 38 58 47 3 52 5 52 27 0 46 -57
71 -102 45z m66 -22 c24 -33 20 -38 -29 -38 -49 0 -59 15 -29 44 21 22 40 20
58 -6z"/>
<path d="M1590 685 c-11 -13 -8 -14 20 -9 51 11 73 -40 23 -52 -46 -11 -73
-32 -73 -59 0 -30 40 -51 68 -36 9 5 33 7 52 4 28 -3 32 -2 18 7 -14 9 -18 25
-18 79 0 54 -4 70 -16 75 -27 11 -61 6 -74 -9z m70 -99 c0 -44 -60 -64 -68
-23 -6 32 6 47 38 47 25 0 30 -4 30 -24z"/>
<path d="M1744 689 c-2 -4 0 -10 6 -14 17 -10 12 -111 -6 -129 -14 -15 -12
-16 23 -15 21 0 32 3 26 6 -9 3 -13 27 -13 68 0 54 3 66 20 75 14 8 26 8 40 0
17 -9 20 -21 20 -75 0 -41 -4 -65 -12 -68 -7 -3 5 -6 27 -6 32 0 36 2 23 10
-14 8 -18 24 -18 79 0 57 -3 70 -17 74 -26 7 -113 4 -119 -5z"/>
</g>
</svg>
