<?xml version="1.0" standalone="no"?>
<!DOCTYPE svg PUBLIC "-//W3C//DTD SVG 20010904//EN"
 "http://www.w3.org/TR/2001/REC-SVG-20010904/DTD/svg10.dtd">
<svg version="1.0" xmlns="http://www.w3.org/2000/svg"
 width="400.000000pt" height="400.000000pt" viewBox="0 0 400.000000 400.000000"
 preserveAspectRatio="xMidYMid meet">

<g transform="translate(0.000000,400.000000) scale(0.100000,-0.100000)"
fill="#000000" stroke="none">
<path d="M2171 3595 c-13 -8 -29 -22 -34 -32 -9 -15 -8 -16 4 -7 43 32 111 39
178 18 17 -5 22 -4 17 5 -4 6 -11 9 -16 6 -4 -3 -10 2 -14 10 -7 19 -100 19
-135 0z"/>
<path d="M2540 3585 c0 -3 16 -22 36 -42 37 -39 114 -146 114 -159 0 -4 6 -15
13 -23 18 -21 50 -128 44 -144 -3 -8 -1 -33 3 -58 7 -34 5 -48 -7 -62 -9 -9
-14 -20 -10 -23 3 -3 39 -2 79 4 l73 9 -32 14 c-25 10 -33 20 -33 39 0 14 -4
30 -8 36 -5 5 -21 47 -36 94 -19 62 -42 106 -82 160 -65 89 -154 178 -154 155z"/>
<path d="M2295 3360 c-19 -8 -19 -9 3 -9 12 -1 22 4 22 9 0 6 -1 10 -2 9 -2 0
-12 -4 -23 -9z"/>
<path d="M2235 3340 c3 -5 8 -10 11 -10 2 0 4 5 4 10 0 6 -5 10 -11 10 -5 0
-7 -4 -4 -10z"/>
<path d="M3130 3236 c0 -3 13 -19 30 -37 16 -18 38 -49 47 -69 25 -49 43 -150
32 -178 -5 -13 -9 -38 -9 -56 0 -17 -5 -37 -11 -43 -6 -6 -9 -19 -6 -29 4 -18
4 -18 11 1 4 11 12 29 16 40 5 11 11 36 15 55 15 87 17 112 6 123 -6 6 -11 21
-11 34 0 29 -34 89 -73 131 -28 28 -47 40 -47 28z"/>
<path d="M2057 3190 c-23 -57 -38 -122 -49 -202 -10 -84 -15 -96 -42 -120
l-31 -28 45 6 c25 4 63 10 85 14 l40 7 -27 11 -28 12 0 120 c0 67 5 130 11
141 5 11 8 28 6 37 -3 14 -5 15 -10 2z"/>
<path d="M2935 3100 c-3 -5 -1 -10 4 -10 6 0 11 5 11 10 0 6 -2 10 -4 10 -3 0
-8 -4 -11 -10z"/>
<path d="M1461 3021 c-30 -27 -22 -37 16 -19 15 8 52 13 82 12 69 -3 54 15
-20 23 -45 4 -58 2 -78 -16z"/>
<path d="M1304 3009 c-3 -5 6 -9 20 -9 31 0 34 6 6 13 -11 3 -23 1 -26 -4z"/>
<path d="M2710 2845 c0 -9 4 -14 9 -10 28 16 20 -35 -19 -130 -33 -80 -42 -95
-54 -95 -8 0 -17 -11 -20 -24 -3 -14 -12 -31 -20 -39 -8 -8 -22 -29 -30 -48
-23 -49 -50 -93 -58 -97 -4 -2 -18 -21 -30 -43 -12 -21 -25 -39 -30 -39 -4 0
-8 -6 -8 -12 0 -7 -21 -35 -47 -63 -106 -115 -145 -155 -159 -163 -19 -11 -7
-42 16 -42 20 0 131 113 221 227 126 158 217 320 270 478 12 39 27 72 31 73
16 7 8 20 -16 26 -13 3 -31 9 -40 12 -11 4 -16 1 -16 -11z"/>
<path d="M1452 2795 c9 -10 21 -16 28 -13 7 2 -1 10 -16 17 -27 12 -28 11 -12
-4z"/>
<path d="M1590 2790 l-25 -8 28 -1 c15 -1 27 4 27 9 0 6 -1 10 -2 9 -2 -1 -14
-5 -28 -9z"/>
<path d="M3165 2741 c-3 -5 -1 -12 5 -16 5 -3 10 1 10 9 0 18 -6 21 -15 7z"/>
<path d="M1970 2621 c0 -6 7 -11 16 -11 14 0 16 -10 11 -62 -3 -41 0 -74 9
-93 7 -16 17 -59 23 -95 13 -89 27 -142 41 -150 10 -6 21 -60 21 -103 0 -11
-8 -25 -17 -31 -30 -22 -6 -37 57 -35 62 2 73 15 31 34 -18 8 -22 18 -22 58 0
59 -20 142 -58 233 -24 58 -28 82 -27 157 0 53 -3 88 -10 88 -5 1 -20 3 -31 4
-12 1 -26 5 -33 9 -6 4 -11 2 -11 -3z"/>
<path d="M2644 2428 c-3 -13 -13 -31 -22 -40 -8 -10 -13 -18 -10 -18 3 0 14 8
25 18 23 20 40 62 24 62 -5 0 -13 -10 -17 -22z"/>
<path d="M386 2211 c-4 -7 -5 -15 -2 -18 9 -9 19 4 14 18 -4 11 -6 11 -12 0z"/>
<path d="M2463 2174 c-3 -8 -1 -20 6 -27 8 -8 11 -4 11 16 0 30 -7 35 -17 11z"/>
<path d="M366 2161 c-4 -7 -5 -15 -2 -18 9 -9 19 4 14 18 -4 11 -6 11 -12 0z"/>
<path d="M2447 2110 c-14 -11 -32 -17 -40 -14 -10 3 -18 -2 -22 -15 -3 -12
-12 -21 -18 -21 -7 0 -27 -13 -45 -28 -23 -19 -31 -33 -26 -45 7 -19 20 -22
29 -7 3 6 13 10 21 10 8 0 14 -4 14 -10 0 -5 -9 -10 -20 -10 -11 0 -20 -4 -20
-10 0 -5 6 -10 14 -10 17 0 48 39 41 51 -3 4 2 9 10 13 8 3 15 11 15 18 1 19
36 58 53 58 19 0 41 26 29 34 -5 3 -21 -3 -35 -14z"/>
<path d="M2190 2104 c0 -8 5 -12 10 -9 6 4 8 11 5 16 -9 14 -15 11 -15 -7z"/>
<path d="M336 2046 c-8 -78 0 -137 24 -191 19 -42 94 -125 112 -125 6 0 -3 13
-19 29 -55 52 -90 113 -99 171 -9 58 -9 59 1 133 4 28 3 47 -3 47 -5 0 -12
-29 -16 -64z"/>
<path d="M1953 2020 c0 -25 2 -35 4 -22 2 12 2 32 0 45 -2 12 -4 2 -4 -23z"/>
<path d="M2315 1931 c-3 -5 -1 -12 5 -16 5 -3 10 1 10 9 0 18 -6 21 -15 7z"/>
<path d="M1982 1858 c-21 -21 -176 -117 -224 -139 -27 -12 -48 -25 -48 -30 0
-5 -8 -9 -18 -9 -22 0 -72 -22 -72 -32 0 -12 28 -10 35 2 3 6 14 10 24 10 10
0 24 6 30 13 6 8 29 20 51 27 22 7 40 17 40 22 0 4 7 8 16 8 9 0 28 8 42 19
15 10 47 29 72 41 70 35 92 56 77 69 -10 8 -17 7 -25 -1z"/>
<path d="M2039 1811 c16 -10 7 -46 -9 -36 -5 3 -10 2 -10 -3 0 -6 7 -12 15
-16 22 -8 19 -28 -19 -98 -84 -158 -157 -266 -261 -383 -99 -112 -255 -265
-270 -265 -10 0 -10 7 1 38 7 20 13 66 14 101 0 114 -57 189 -177 233 -54 20
-83 22 -397 26 -278 3 -340 2 -347 -9 -10 -16 -12 -748 -3 -773 5 -13 24 -16
105 -16 l99 0 0 134 c0 95 4 137 13 144 7 6 110 12 257 14 239 5 258 7 340 42
14 5 30 12 35 14 6 2 -20 -25 -57 -61 -68 -64 -82 -87 -52 -87 22 0 163 121
301 258 63 63 117 112 119 109 6 -6 -123 -258 -221 -432 -16 -27 -37 -65 -47
-83 -10 -18 -18 -37 -18 -42 0 -6 44 -10 105 -10 l106 0 41 88 c24 48 47 90
53 94 5 4 114 8 242 8 l231 0 42 -82 c23 -46 46 -89 52 -95 11 -14 228 -19
228 -5 0 4 -14 32 -31 62 -17 30 -41 73 -53 95 -11 22 -23 42 -26 45 -6 6 -18
28 -64 112 -18 35 -43 80 -54 100 -12 21 -38 68 -58 105 -21 37 -47 84 -58
103 -12 19 -28 49 -36 65 -8 17 -25 47 -39 68 l-24 37 -84 -1 c-46 -1 -86 1
-90 4 -7 8 3 30 48 102 18 28 49 86 71 130 22 44 43 87 47 95 5 8 20 16 35 18
14 2 26 8 26 13 0 5 11 9 25 9 14 0 29 8 36 21 10 20 9 21 -23 13 -42 -11 -93
-11 -138 -1 -22 4 -30 4 -21 -2z m-889 -541 c62 -14 89 -30 106 -62 40 -77 -6
-153 -107 -175 -31 -8 -121 -13 -206 -13 -128 0 -152 2 -157 16 -3 9 -6 60 -6
114 0 54 3 105 6 114 5 14 29 16 163 16 86 0 176 -5 201 -10z m930 -175 c43
-82 76 -153 73 -157 -2 -5 -76 -8 -164 -8 -120 0 -159 3 -159 13 0 6 33 78 72
160 47 95 78 147 87 145 7 -2 49 -70 91 -153z"/>
<path d="M1570 1630 c-12 -8 -11 -10 8 -10 12 0 22 5 22 10 0 13 -11 13 -30 0z"/>
<path d="M1505 1601 c-6 -5 -19 -11 -30 -14 -15 -4 -13 -5 8 -6 15 0 27 3 27
8 0 5 10 12 23 14 20 4 20 4 2 6 -12 0 -25 -3 -30 -8z"/>
<path d="M1428 1563 c7 -3 16 -2 19 1 4 3 -2 6 -13 5 -11 0 -14 -3 -6 -6z"/>
<path d="M1355 1540 c-3 -5 3 -10 14 -10 11 0 23 5 26 10 3 6 -3 10 -14 10
-11 0 -23 -4 -26 -10z"/>
<path d="M1298 1513 c7 -3 16 -2 19 1 4 3 -2 6 -13 5 -11 0 -14 -3 -6 -6z"/>
<path d="M1250 1500 l-25 -8 28 -1 c15 -1 27 4 27 9 0 6 -1 10 -2 9 -2 -1 -14
-5 -28 -9z"/>
<path d="M2630 1112 c0 -196 4 -311 11 -333 35 -104 167 -164 386 -176 199
-11 363 29 443 107 65 63 72 112 68 440 l-3 255 -96 3 c-71 2 -99 -1 -107 -11
-7 -8 -12 -107 -14 -292 -3 -275 -3 -281 -26 -313 -13 -18 -36 -39 -51 -46
-44 -23 -151 -33 -235 -23 -64 8 -81 14 -114 43 -22 18 -43 46 -47 61 -5 16
-11 152 -14 303 l-6 275 -97 3 -98 3 0 -299z"/>
</g>
</svg>
