<?xml version="1.0" standalone="no"?>
<!DOCTYPE svg PUBLIC "-//W3C//DTD SVG 20010904//EN"
 "http://www.w3.org/TR/2001/REC-SVG-20010904/DTD/svg10.dtd">
<svg version="1.0" xmlns="http://www.w3.org/2000/svg"
 width="205.000000pt" height="298.000000pt" viewBox="0 0 205.000000 298.000000"
 preserveAspectRatio="xMidYMid meet">

<g transform="translate(0.000000,298.000000) scale(0.100000,-0.100000)"
fill="#000000" stroke="none">
<path d="M2000 2563 l0 -393 -995 0 -995 0 0 -530 0 -530 275 0 c266 0 277 -1
298 -21 48 -45 98 -63 193 -67 81 -4 105 0 210 29 154 44 265 46 361 7 59 -24
73 -25 73 -7 0 18 -119 51 -201 56 -77 5 -98 2 -200 -28 -95 -28 -131 -33
-214 -34 -90 0 -106 3 -158 29 -32 15 -61 35 -64 42 -7 18 39 88 71 109 22 14
27 13 87 -15 79 -37 148 -39 282 -9 150 34 274 14 387 -61 l45 -30 267 0 268
0 -6 -47 c-48 -393 -278 -711 -650 -897 -83 -41 -295 -116 -329 -116 -67 0
-346 115 -468 193 -31 20 -57 34 -57 32 0 -11 147 -99 233 -140 51 -24 141
-60 202 -81 126 -42 131 -42 302 22 429 159 696 454 790 874 15 66 17 183 20
1020 3 831 2 947 -11 965 -14 18 -15 -20 -16 -372z m-865 -467 c39 -11 40 -13
43 -59 2 -26 1 -47 -1 -47 -3 0 -21 16 -40 35 -32 32 -40 35 -94 35 -116 0
-173 -64 -173 -194 1 -126 50 -196 145 -204 67 -5 109 10 132 49 10 16 23 29
30 29 18 0 17 -84 -1 -99 -8 -6 -45 -18 -84 -26 -188 -39 -316 58 -315 239 1
118 55 206 148 240 48 18 155 19 210 2z m-755 -5 c0 -5 -7 -11 -15 -15 -13 -4
-15 -34 -15 -181 l0 -177 29 -29 c24 -24 38 -29 76 -29 38 0 52 5 76 29 l29
29 0 177 c0 147 -2 177 -15 181 -35 14 -10 24 60 24 70 0 95 -10 60 -24 -12
-4 -15 -32 -15 -163 0 -171 -7 -213 -42 -251 -40 -42 -78 -56 -153 -56 -86 0
-136 22 -167 73 -21 33 -23 50 -26 214 -3 141 -7 179 -18 184 -34 13 -8 23 61
23 41 0 75 -4 75 -9z m1283 -24 c44 -22 63 -39 85 -75 24 -41 27 -57 27 -132
0 -130 -43 -193 -152 -226 -52 -16 -313 -20 -313 -5 0 5 11 16 25 25 l25 17
-2 192 c-3 188 -3 192 -25 202 -13 5 -23 16 -23 23 0 12 27 14 148 11 137 -4
151 -6 205 -32z m-1162 -556 c24 -24 29 -38 29 -76 0 -38 -5 -52 -29 -76 -28
-27 -34 -29 -110 -29 l-81 0 0 105 0 105 81 0 c76 0 82 -2 110 -29z m151 -53
c3 -80 3 -82 31 -89 16 -4 40 -4 53 1 23 9 24 14 24 90 0 79 0 80 25 80 25 0
25 -1 25 -79 0 -63 -4 -83 -20 -103 -24 -31 -70 -41 -121 -28 -56 15 -69 40
-69 132 0 76 1 78 25 78 23 0 24 -2 27 -82z m390 65 c20 -18 24 -53 8 -69 -8
-8 -6 -15 5 -24 21 -17 19 -56 -5 -80 -16 -16 -33 -20 -95 -20 l-75 0 0 105 0
105 72 0 c52 0 76 -4 90 -17z m158 -68 l0 -84 58 -3 c43 -2 57 -7 57 -18 0
-12 -17 -16 -82 -18 l-83 -3 0 106 0 105 25 0 c25 0 25 -1 25 -85z m220 -20
c0 -98 -1 -105 -20 -105 -19 0 -20 7 -20 105 0 98 1 105 20 105 19 0 20 -7 20
-105z m173 28 l57 -77 0 77 c0 70 2 77 20 77 19 0 20 -7 20 -105 0 -104 0
-105 -24 -105 -18 0 -38 19 -81 75 -32 41 -58 75 -59 75 0 0 -1 -33 -1 -72 0
-68 -2 -73 -22 -76 -23 -3 -23 -2 -23 102 l0 106 28 0 c23 0 37 -13 85 -77z"/>
<path d="M1445 2038 c-3 -7 -4 -92 -3 -188 l3 -175 55 -3 c70 -3 136 28 165
78 28 49 28 171 0 219 -33 56 -67 75 -145 79 -53 3 -71 1 -75 -10z"/>
<path d="M360 1435 l0 -65 45 0 c54 0 85 25 85 69 0 39 -32 61 -87 61 l-43 0
0 -65z"/>
<path d="M920 1480 c0 -19 5 -21 48 -18 34 2 47 7 47 18 0 11 -13 16 -47 18
-43 3 -48 1 -48 -18z"/>
<path d="M920 1395 c0 -25 2 -26 48 -23 39 3 47 6 47 23 0 17 -8 20 -47 23
-46 3 -48 2 -48 -23z"/>
<path d="M1543 2825 c-25 -26 -43 -55 -43 -68 0 -16 5 -12 19 19 10 22 34 53
52 67 19 15 30 27 25 27 -5 0 -29 -20 -53 -45z"/>
<path d="M939 2773 c-13 -16 -12 -17 4 -4 9 7 17 15 17 17 0 8 -8 3 -21 -13z"/>
<path d="M995 2779 c-4 -6 -5 -12 -2 -15 2 -3 7 2 10 11 7 17 1 20 -8 4z"/>
<path d="M1431 2745 c-30 -34 -42 -87 -23 -99 4 -2 6 10 4 28 -3 26 3 41 28
70 18 20 30 36 27 36 -3 0 -19 -16 -36 -35z"/>
<path d="M1567 2766 c-4 -10 -5 -21 -2 -24 9 -9 17 6 13 25 -3 17 -4 17 -11
-1z"/>
<path d="M990 2741 c0 -6 4 -13 10 -16 6 -3 7 1 4 9 -7 18 -14 21 -14 7z"/>
<path d="M1587 2711 c5 -21 -11 -30 -20 -11 -3 6 -4 5 -3 -2 1 -6 8 -14 14
-16 16 -5 27 27 14 40 -8 8 -9 5 -5 -11z"/>
<path d="M829 2693 l-24 -28 28 24 c25 23 32 31 24 31 -2 0 -14 -12 -28 -27z"/>
<path d="M947 2705 c-4 -8 -2 -17 3 -20 6 -4 10 3 10 14 0 25 -6 27 -13 6z"/>
<path d="M1467 2696 c-4 -10 -3 -15 3 -11 6 3 10 -2 11 -12 0 -10 3 -13 5 -6
3 7 1 20 -4 29 -8 15 -9 15 -15 0z"/>
<path d="M1660 2680 c0 -19 3 -21 12 -12 9 9 9 15 0 24 -9 9 -12 7 -12 -12z"/>
<path d="M1061 2680 c-1 -3 6 -23 14 -45 8 -22 14 -31 14 -20 0 17 -28 80 -28
65z"/>
<path d="M380 2635 c-13 -14 -22 -27 -19 -29 2 -2 14 10 27 25 29 36 24 38 -8
4z"/>
<path d="M856 2643 c-6 -14 -5 -15 5 -6 7 7 10 15 7 18 -3 3 -9 -2 -12 -12z"/>
<path d="M947 2639 c7 -7 15 -10 18 -7 3 3 -2 9 -12 12 -14 6 -15 5 -6 -5z"/>
<path d="M1032 2630 c0 -14 2 -19 5 -12 2 6 2 18 0 25 -3 6 -5 1 -5 -13z"/>
<path d="M1696 2635 c-11 -8 -15 -15 -9 -15 6 0 16 7 23 15 16 19 11 19 -14 0z"/>
<path d="M1563 2633 c9 -2 25 -2 35 0 9 3 1 5 -18 5 -19 0 -27 -2 -17 -5z"/>
<path d="M1658 2605 c3 -20 0 -25 -16 -25 -11 0 -23 8 -25 18 -4 13 -5 11 -6
-5 -1 -19 4 -23 29 -23 25 0 30 4 30 24 0 14 -4 27 -9 30 -4 3 -6 -6 -3 -19z"/>
<path d="M309 2583 l-24 -28 28 24 c15 14 27 26 27 28 0 8 -8 1 -31 -24z"/>
<path d="M440 2606 c0 -2 8 -10 18 -17 15 -13 16 -12 3 4 -13 16 -21 21 -21
13z"/>
<path d="M1510 2596 c0 -8 -12 -17 -27 -19 -26 -4 -26 -4 5 -6 26 -1 32 3 32
19 0 11 -2 20 -5 20 -3 0 -5 -6 -5 -14z"/>
<path d="M1761 2593 c-1 -18 4 -23 22 -22 15 1 17 3 5 6 -9 2 -19 12 -21 21
-3 12 -5 10 -6 -5z"/>
<path d="M919 2587 c5 -5 21 -7 37 -5 27 3 26 4 -8 9 -22 3 -34 1 -29 -4z"/>
<path d="M402 2562 c1 -19 5 -29 10 -24 5 5 5 19 -1 33 -8 22 -9 22 -9 -9z"/>
<path d="M783 2583 c9 -2 23 -2 30 0 6 3 -1 5 -18 5 -16 0 -22 -2 -12 -5z"/>
<path d="M1073 2583 c9 -2 23 -2 30 0 6 3 -1 5 -18 5 -16 0 -22 -2 -12 -5z"/>
<path d="M491 2564 c0 -11 3 -14 6 -6 3 7 2 16 -1 19 -3 4 -6 -2 -5 -13z"/>
<path d="M1338 2573 c6 -2 18 -2 25 0 6 3 1 5 -13 5 -14 0 -19 -2 -12 -5z"/>
<path d="M858 2563 c7 -3 16 -2 19 1 4 3 -2 6 -13 5 -11 0 -14 -3 -6 -6z"/>
<path d="M1121 2553 c-1 -16 5 -23 17 -23 10 0 13 3 6 8 -6 4 -14 14 -17 22
-4 10 -6 8 -6 -7z"/>
<path d="M282 2530 c0 -14 2 -19 5 -12 2 6 2 18 0 25 -3 6 -5 1 -5 -13z"/>
<path d="M331 2534 c0 -11 3 -14 6 -6 3 7 2 16 -1 19 -3 4 -6 -2 -5 -13z"/>
<path d="M501 2524 c0 -11 3 -14 6 -6 3 7 2 16 -1 19 -3 4 -6 -2 -5 -13z"/>
<path d="M738 2533 c6 -2 18 -2 25 0 6 3 1 5 -13 5 -14 0 -19 -2 -12 -5z"/>
<path d="M863 2533 c9 -2 23 -2 30 0 6 3 -1 5 -18 5 -16 0 -22 -2 -12 -5z"/>
<path d="M993 2533 c9 -2 25 -2 35 0 9 3 1 5 -18 5 -19 0 -27 -2 -17 -5z"/>
<path d="M1161 2504 c0 -11 3 -14 6 -6 3 7 2 16 -1 19 -3 4 -6 -2 -5 -13z"/>
<path d="M1332 2500 c0 -14 2 -19 5 -12 2 6 2 18 0 25 -3 6 -5 1 -5 -13z"/>
<path d="M427 2503 c-3 -5 -1 -17 4 -28 6 -17 7 -16 6 8 -1 28 -3 32 -10 20z"/>
<path d="M246 2475 c-3 -8 -1 -15 4 -15 6 0 10 7 10 15 0 8 -2 15 -4 15 -2 0
-6 -7 -10 -15z"/>
<path d="M530 2475 c0 -8 4 -15 10 -15 5 0 7 7 4 15 -4 8 -8 15 -10 15 -2 0
-4 -7 -4 -15z"/>
<path d="M1346 2388 c-4 -51 -10 -112 -13 -135 l-6 -43 227 0 c144 0 226 4
226 10 0 6 -79 10 -216 10 l-217 0 6 38 c14 88 19 212 10 212 -6 0 -13 -42
-17 -92z"/>
<path d="M1762 2460 c0 -14 2 -19 5 -12 2 6 2 18 0 25 -3 6 -5 1 -5 -13z"/>
<path d="M561 2443 c-1 -6 -4 -20 -7 -30 -5 -17 -5 -17 6 0 6 10 9 23 6 30 -3
9 -5 9 -5 0z"/>
<path d="M746 2353 c-4 -54 -10 -108 -13 -120 l-5 -23 205 0 c181 0 206 2 211
16 4 9 4 19 1 22 -3 3 -5 0 -5 -6 0 -9 -53 -12 -196 -12 l-196 0 6 28 c12 63
18 192 8 192 -5 0 -12 -44 -16 -97z"/>
<path d="M1122 2420 c0 -19 2 -27 5 -17 2 9 2 25 0 35 -3 9 -5 1 -5 -18z"/>
<path d="M1536 2424 c-3 -9 -5 -37 -4 -62 l1 -47 6 55 c5 49 9 55 28 54 12 0
20 3 17 8 -9 14 -42 9 -48 -8z"/>
<path d="M958 2365 c4 -41 2 -44 -25 -48 -27 -4 -27 -4 5 -6 32 -1 32 0 32 43
0 25 -3 47 -7 49 -5 3 -6 -14 -5 -38z"/>
<path d="M1773 2375 c0 -22 2 -30 4 -17 2 12 2 30 0 40 -3 9 -5 -1 -4 -23z"/>
<path d="M246 2344 c-3 -26 -6 -66 -6 -90 l0 -44 154 0 c133 0 155 2 160 16 4
9 4 19 1 22 -3 3 -5 0 -5 -6 0 -9 -42 -12 -150 -12 l-150 0 6 58 c3 31 7 67
10 80 2 12 0 22 -4 22 -5 0 -12 -21 -16 -46z"/>
<path d="M386 2362 c-3 -5 1 -9 9 -9 8 0 12 4 9 9 -3 4 -7 8 -9 8 -2 0 -6 -4
-9 -8z"/>
<path d="M1133 2335 c0 -22 2 -30 4 -17 2 12 2 30 0 40 -3 9 -5 -1 -4 -23z"/>
<path d="M543 2315 c0 -22 2 -30 4 -17 2 12 2 30 0 40 -3 9 -5 -1 -4 -23z"/>
<path d="M381 2324 c0 -11 3 -14 6 -6 3 7 2 16 -1 19 -3 4 -6 -2 -5 -13z"/>
<path d="M1783 2275 c0 -22 2 -30 4 -17 2 12 2 30 0 40 -3 9 -5 -1 -4 -23z"/>
<path d="M388 2293 c6 -2 18 -2 25 0 6 3 1 5 -13 5 -14 0 -19 -2 -12 -5z"/>
<path d="M29 1072 c-3 -20 -2 -29 4 -23 5 5 7 19 5 32 -3 20 -5 19 -9 -9z"/>
<path d="M1955 1034 c-8 -79 0 -98 10 -22 3 29 9 61 11 71 3 9 1 17 -4 17 -5
0 -13 -30 -17 -66z"/>
<path d="M1150 1061 c0 -18 74 -134 78 -123 3 11 -64 132 -74 132 -2 0 -4 -4
-4 -9z"/>
<path d="M1034 1026 c11 -33 117 -208 123 -202 6 6 -81 162 -110 198 -16 19
-18 20 -13 4z"/>
<path d="M1323 989 c-17 -29 -95 -181 -174 -336 -79 -156 -148 -281 -154 -280
-5 2 -24 22 -42 45 -17 23 -34 38 -37 33 -7 -11 43 -87 70 -105 18 -13 28 3
197 332 98 190 176 350 174 356 -2 5 -17 -15 -34 -45z"/>
<path d="M573 893 c6 -160 27 -247 87 -363 67 -127 163 -228 313 -328 37 -25
70 -42 74 -39 3 4 4 8 2 10 -2 2 -40 28 -84 58 -256 173 -375 398 -375 708 0
62 -4 91 -11 91 -9 0 -10 -38 -6 -137z"/>
<path d="M1285 638 c-70 -205 -129 -374 -130 -376 -5 -5 -83 37 -90 48 -4 6
-11 8 -16 4 -6 -3 -5 -11 2 -21 18 -21 107 -64 113 -54 3 4 61 172 130 372 69
200 128 372 131 382 4 9 3 17 -3 17 -5 0 -67 -168 -137 -372z"/>
<path d="M910 995 c0 -13 165 -285 173 -285 12 0 13 -3 -78 153 -69 118 -95
154 -95 132z"/>
<path d="M792 954 c8 -32 211 -370 215 -358 3 9 -198 359 -214 374 -3 3 -4 -4
-1 -16z"/>
<path d="M1941 934 c0 -11 3 -14 6 -6 3 7 2 16 -1 19 -3 4 -6 -2 -5 -13z"/>
<path d="M390 346 c0 -2 8 -10 18 -17 15 -13 16 -12 3 4 -13 16 -21 21 -21 13z"/>
<path d="M440 306 c0 -2 8 -10 18 -17 15 -13 16 -12 3 4 -13 16 -21 21 -21 13z"/>
</g>
</svg>
